<mxfile host="Electron" modified="2024-10-08T23:12:18.549Z" agent="Mozilla/5.0 (Windows NT 10.0; Win64; x64) AppleWebKit/537.36 (KHTML, like Gecko) draw.io/24.6.4 Chrome/124.0.6367.207 Electron/30.0.6 Safari/537.36" etag="SdBqRV7cW3tXPZ1-bJfy" version="24.6.4" type="device" pages="2">
  <diagram name="Страница — 1" id="jvpsipyLOduuR-rQITPB">
    <mxGraphModel dx="8370" dy="5389" grid="1" gridSize="10" guides="1" tooltips="1" connect="1" arrows="1" fold="1" page="1" pageScale="1" pageWidth="827" pageHeight="1169" math="0" shadow="0">
      <root>
        <mxCell id="0" />
        <mxCell id="1" parent="0" />
        <mxCell id="cI-tB0PRecpQT2LH2l9G-2" value="&lt;h2&gt;&lt;font style=&quot;font-size: 24px;&quot;&gt;1.3.Определите домены и границы контекстов&lt;/font&gt;&lt;/h2&gt;" style="text;html=1;align=center;verticalAlign=middle;whiteSpace=wrap;rounded=0;" parent="1" vertex="1">
          <mxGeometry x="430" y="40" width="650" height="90" as="geometry" />
        </mxCell>
        <object placeholders="1" c4Name="Smarthome" c4Type="SystemScopeBoundary" c4Application="Main" label="&lt;font style=&quot;font-size: 16px&quot;&gt;&lt;b&gt;&lt;div style=&quot;text-align: left&quot;&gt;%c4Name%&lt;/div&gt;&lt;/b&gt;&lt;/font&gt;&lt;div style=&quot;text-align: left&quot;&gt;[%c4Application%]&lt;/div&gt;" id="cI-tB0PRecpQT2LH2l9G-4">
          <mxCell style="rounded=1;fontSize=11;whiteSpace=wrap;html=1;dashed=1;arcSize=20;fillColor=none;strokeColor=#666666;fontColor=#333333;labelBackgroundColor=none;align=left;verticalAlign=bottom;labelBorderColor=none;spacingTop=0;spacing=10;dashPattern=8 4;metaEdit=1;rotatable=0;perimeter=rectanglePerimeter;noLabel=0;labelPadding=0;allowArrows=0;connectable=0;expand=0;recursiveResize=0;editable=1;pointerEvents=0;absoluteArcSize=1;points=[[0.25,0,0],[0.5,0,0],[0.75,0,0],[1,0.25,0],[1,0.5,0],[1,0.75,0],[0.75,1,0],[0.5,1,0],[0.25,1,0],[0,0.75,0],[0,0.5,0],[0,0.25,0]];" parent="1" vertex="1">
            <mxGeometry x="100" y="190" width="1310" height="420" as="geometry" />
          </mxCell>
        </object>
        <object placeholders="1" c4Name="Управление устройствами" c4Type="SystemScopeBoundary" c4Application="Domain" label="&lt;font style=&quot;font-size: 16px&quot;&gt;&lt;b&gt;&lt;div style=&quot;text-align: left&quot;&gt;%c4Name%&lt;/div&gt;&lt;/b&gt;&lt;/font&gt;&lt;div style=&quot;text-align: left&quot;&gt;[%c4Application%]&lt;/div&gt;" id="cI-tB0PRecpQT2LH2l9G-7">
          <mxCell style="rounded=1;fontSize=11;whiteSpace=wrap;html=1;dashed=1;arcSize=20;fillColor=none;strokeColor=#666666;fontColor=#333333;labelBackgroundColor=none;align=left;verticalAlign=bottom;labelBorderColor=none;spacingTop=0;spacing=10;dashPattern=8 4;metaEdit=1;rotatable=0;perimeter=rectanglePerimeter;noLabel=0;labelPadding=0;allowArrows=0;connectable=0;expand=0;recursiveResize=0;editable=1;pointerEvents=0;absoluteArcSize=1;points=[[0.25,0,0],[0.5,0,0],[0.75,0,0],[1,0.25,0],[1,0.5,0],[1,0.75,0],[0.75,1,0],[0.5,1,0],[0.25,1,0],[0,0.75,0],[0,0.5,0],[0,0.25,0]];" parent="1" vertex="1">
            <mxGeometry x="220" y="250" width="460" height="280" as="geometry" />
          </mxCell>
        </object>
        <object placeholders="1" c4Name="Управление телеметрией" c4Type="SystemScopeBoundary" c4Application="Domain" label="&lt;font style=&quot;font-size: 16px&quot;&gt;&lt;b&gt;&lt;div style=&quot;text-align: left&quot;&gt;%c4Name%&lt;/div&gt;&lt;/b&gt;&lt;/font&gt;&lt;div style=&quot;text-align: left&quot;&gt;[%c4Application%]&lt;/div&gt;" id="cI-tB0PRecpQT2LH2l9G-8">
          <mxCell style="rounded=1;fontSize=11;whiteSpace=wrap;html=1;dashed=1;arcSize=20;fillColor=none;strokeColor=#666666;fontColor=#333333;labelBackgroundColor=none;align=left;verticalAlign=bottom;labelBorderColor=none;spacingTop=0;spacing=10;dashPattern=8 4;metaEdit=1;rotatable=0;perimeter=rectanglePerimeter;noLabel=0;labelPadding=0;allowArrows=0;connectable=0;expand=0;recursiveResize=0;editable=1;pointerEvents=0;absoluteArcSize=1;points=[[0.25,0,0],[0.5,0,0],[0.75,0,0],[1,0.25,0],[1,0.5,0],[1,0.75,0],[0.75,1,0],[0.5,1,0],[0.25,1,0],[0,0.75,0],[0,0.5,0],[0,0.25,0]];" parent="1" vertex="1">
            <mxGeometry x="730" y="260" width="540" height="270" as="geometry" />
          </mxCell>
        </object>
        <object placeholders="1" c4Name="SystemTempMonitoringController" c4Type="Sub domain" c4Technology="system" c4Description="Система получает данные о температуре с датчиков, установленных в домах." label="&lt;font style=&quot;font-size: 14px&quot;&gt;&lt;b&gt;%c4Name%&lt;/b&gt;&lt;/font&gt;&lt;div&gt;[%c4Type%: %c4Technology%]&lt;/div&gt;&lt;br&gt;&lt;div&gt;&lt;font style=&quot;font-size: 11px&quot;&gt;&lt;font color=&quot;#E6E6E6&quot;&gt;%c4Description%&lt;/font&gt;&lt;/div&gt;" id="cI-tB0PRecpQT2LH2l9G-13">
          <mxCell style="rounded=1;whiteSpace=wrap;html=1;fontSize=11;labelBackgroundColor=none;fillColor=#23A2D9;fontColor=#ffffff;align=center;arcSize=10;strokeColor=#0E7DAD;metaEdit=1;resizable=0;points=[[0.25,0,0],[0.5,0,0],[0.75,0,0],[1,0.25,0],[1,0.5,0],[1,0.75,0],[0.75,1,0],[0.5,1,0],[0.25,1,0],[0,0.75,0],[0,0.5,0],[0,0.25,0]];" parent="1" vertex="1">
            <mxGeometry x="750" y="320" width="240" height="120" as="geometry" />
          </mxCell>
        </object>
        <object placeholders="1" c4Name="UserTempMonitoringController" c4Type="Sub domain" c4Technology="user" c4Description="Пользователи могут просматривать текущую температуру в своих домах через веб-интерфейс." label="&lt;font style=&quot;font-size: 14px&quot;&gt;&lt;b&gt;%c4Name%&lt;/b&gt;&lt;/font&gt;&lt;div&gt;[%c4Type%: %c4Technology%]&lt;/div&gt;&lt;br&gt;&lt;div&gt;&lt;font style=&quot;font-size: 11px&quot;&gt;&lt;font color=&quot;#E6E6E6&quot;&gt;%c4Description%&lt;/font&gt;&lt;/div&gt;" id="cI-tB0PRecpQT2LH2l9G-14">
          <mxCell style="rounded=1;whiteSpace=wrap;html=1;fontSize=11;labelBackgroundColor=none;fillColor=#23A2D9;fontColor=#ffffff;align=center;arcSize=10;strokeColor=#0E7DAD;metaEdit=1;resizable=0;points=[[0.25,0,0],[0.5,0,0],[0.75,0,0],[1,0.25,0],[1,0.5,0],[1,0.75,0],[0.75,1,0],[0.5,1,0],[0.25,1,0],[0,0.75,0],[0,0.5,0],[0,0.25,0]];" parent="1" vertex="1">
            <mxGeometry x="1010" y="270" width="240" height="120" as="geometry" />
          </mxCell>
        </object>
        <object placeholders="1" c4Name="UserTempController" c4Type="Sub domain" c4Technology="user" c4Description="Пользователи могут удалённо включать/выключать отопление в своих домах.&#xa;&#xa;Пользователи могут устанавливать желаемую температуру&#xa;" label="&lt;font style=&quot;font-size: 14px&quot;&gt;&lt;b&gt;%c4Name%&lt;/b&gt;&lt;/font&gt;&lt;div&gt;[%c4Type%: %c4Technology%]&lt;/div&gt;&lt;br&gt;&lt;div&gt;&lt;font style=&quot;font-size: 11px&quot;&gt;&lt;font color=&quot;#E6E6E6&quot;&gt;%c4Description%&lt;/font&gt;&lt;/div&gt;" id="cI-tB0PRecpQT2LH2l9G-15">
          <mxCell style="rounded=1;whiteSpace=wrap;html=1;fontSize=11;labelBackgroundColor=none;fillColor=#23A2D9;fontColor=#ffffff;align=center;arcSize=10;strokeColor=#0E7DAD;metaEdit=1;resizable=0;points=[[0.25,0,0],[0.5,0,0],[0.75,0,0],[1,0.25,0],[1,0.5,0],[1,0.75,0],[0.75,1,0],[0.5,1,0],[0.25,1,0],[0,0.75,0],[0,0.5,0],[0,0.25,0]];" parent="1" vertex="1">
            <mxGeometry x="320" y="320" width="240" height="120" as="geometry" />
          </mxCell>
        </object>
        <object placeholders="1" c4Name="SystemTempController" c4Type="Sub domain" c4Technology="system" c4Description="Система автоматически поддерживает заданную температуру, регулируя подачу тепла." label="&lt;font style=&quot;font-size: 14px&quot;&gt;&lt;b&gt;%c4Name%&lt;/b&gt;&lt;/font&gt;&lt;div&gt;[%c4Type%: %c4Technology%]&lt;/div&gt;&lt;br&gt;&lt;div&gt;&lt;font style=&quot;font-size: 11px&quot;&gt;&lt;font color=&quot;#E6E6E6&quot;&gt;%c4Description%&lt;/font&gt;&lt;/div&gt;" id="cI-tB0PRecpQT2LH2l9G-17">
          <mxCell style="rounded=1;whiteSpace=wrap;html=1;fontSize=11;labelBackgroundColor=none;fillColor=#23A2D9;fontColor=#ffffff;align=center;arcSize=10;strokeColor=#0E7DAD;metaEdit=1;resizable=0;points=[[0.25,0,0],[0.5,0,0],[0.75,0,0],[1,0.25,0],[1,0.5,0],[1,0.75,0],[0.75,1,0],[0.5,1,0],[0.25,1,0],[0,0.75,0],[0,0.5,0],[0,0.25,0]];" parent="1" vertex="1">
            <mxGeometry x="1010" y="400" width="240" height="120" as="geometry" />
          </mxCell>
        </object>
        <object placeholders="1" c4Name="Smarthome" c4Type="SystemScopeBoundary" c4Application="Main" label="&lt;font style=&quot;font-size: 16px&quot;&gt;&lt;b&gt;&lt;div style=&quot;text-align: left&quot;&gt;%c4Name%&lt;/div&gt;&lt;/b&gt;&lt;/font&gt;&lt;div style=&quot;text-align: left&quot;&gt;[%c4Application%]&lt;/div&gt;" id="cI-tB0PRecpQT2LH2l9G-19">
          <mxCell style="rounded=1;fontSize=11;whiteSpace=wrap;html=1;dashed=1;arcSize=20;fillColor=none;strokeColor=#666666;fontColor=#333333;labelBackgroundColor=none;align=left;verticalAlign=bottom;labelBorderColor=none;spacingTop=0;spacing=10;dashPattern=8 4;metaEdit=1;rotatable=0;perimeter=rectanglePerimeter;noLabel=0;labelPadding=0;allowArrows=0;connectable=0;expand=0;recursiveResize=0;editable=1;pointerEvents=0;absoluteArcSize=1;points=[[0.25,0,0],[0.5,0,0],[0.75,0,0],[1,0.25,0],[1,0.5,0],[1,0.75,0],[0.75,1,0],[0.5,1,0],[0.25,1,0],[0,0.75,0],[0,0.5,0],[0,0.25,0]];" parent="1" vertex="1">
            <mxGeometry x="160" y="690" width="1160" height="490" as="geometry" />
          </mxCell>
        </object>
        <object placeholders="1" c4Name="UserTempController" c4Type="SystemScopeBoundary" c4Application="Sub domain" label="&lt;font style=&quot;font-size: 16px&quot;&gt;&lt;b&gt;&lt;div style=&quot;text-align: left&quot;&gt;%c4Name%&lt;/div&gt;&lt;/b&gt;&lt;/font&gt;&lt;div style=&quot;text-align: left&quot;&gt;[%c4Application%]&lt;/div&gt;" id="cI-tB0PRecpQT2LH2l9G-20">
          <mxCell style="rounded=1;fontSize=11;whiteSpace=wrap;html=1;dashed=1;arcSize=20;fillColor=none;strokeColor=#666666;fontColor=#333333;labelBackgroundColor=none;align=left;verticalAlign=bottom;labelBorderColor=none;spacingTop=0;spacing=10;dashPattern=8 4;metaEdit=1;rotatable=0;perimeter=rectanglePerimeter;noLabel=0;labelPadding=0;allowArrows=0;connectable=0;expand=0;recursiveResize=0;editable=1;pointerEvents=0;absoluteArcSize=1;points=[[0.25,0,0],[0.5,0,0],[0.75,0,0],[1,0.25,0],[1,0.5,0],[1,0.75,0],[0.75,1,0],[0.5,1,0],[0.25,1,0],[0,0.75,0],[0,0.5,0],[0,0.25,0]];" parent="1" vertex="1">
            <mxGeometry x="200" y="709" width="340" height="200" as="geometry" />
          </mxCell>
        </object>
        <object placeholders="1" c4Name="User side management" c4Type="Context" c4Description="Возможность пользователя управлять температурой в доме" label="&lt;font style=&quot;font-size: 16px&quot;&gt;&lt;b&gt;%c4Name%&lt;/b&gt;&lt;/font&gt;&lt;div&gt;[%c4Type%]&lt;/div&gt;&lt;br&gt;&lt;div&gt;&lt;font style=&quot;font-size: 11px&quot;&gt;&lt;font color=&quot;#cccccc&quot;&gt;%c4Description%&lt;/font&gt;&lt;/div&gt;" id="cI-tB0PRecpQT2LH2l9G-22">
          <mxCell style="rounded=1;whiteSpace=wrap;html=1;labelBackgroundColor=none;fillColor=#1061B0;fontColor=#ffffff;align=center;arcSize=10;strokeColor=#0D5091;metaEdit=1;resizable=0;points=[[0.25,0,0],[0.5,0,0],[0.75,0,0],[1,0.25,0],[1,0.5,0],[1,0.75,0],[0.75,1,0],[0.5,1,0],[0.25,1,0],[0,0.75,0],[0,0.5,0],[0,0.25,0]];" parent="1" vertex="1">
            <mxGeometry x="250" y="729" width="240" height="120" as="geometry" />
          </mxCell>
        </object>
        <object placeholders="1" c4Name="SystemTempController" c4Type="SystemScopeBoundary" c4Application="Sub domain" label="&lt;font style=&quot;font-size: 16px&quot;&gt;&lt;b&gt;&lt;div style=&quot;text-align: left&quot;&gt;%c4Name%&lt;/div&gt;&lt;/b&gt;&lt;/font&gt;&lt;div style=&quot;text-align: left&quot;&gt;[%c4Application%]&lt;/div&gt;" id="cI-tB0PRecpQT2LH2l9G-24">
          <mxCell style="rounded=1;fontSize=11;whiteSpace=wrap;html=1;dashed=1;arcSize=20;fillColor=none;strokeColor=#666666;fontColor=#333333;labelBackgroundColor=none;align=left;verticalAlign=bottom;labelBorderColor=none;spacingTop=0;spacing=10;dashPattern=8 4;metaEdit=1;rotatable=0;perimeter=rectanglePerimeter;noLabel=0;labelPadding=0;allowArrows=0;connectable=0;expand=0;recursiveResize=0;editable=1;pointerEvents=0;absoluteArcSize=1;points=[[0.25,0,0],[0.5,0,0],[0.75,0,0],[1,0.25,0],[1,0.5,0],[1,0.75,0],[0.75,1,0],[0.5,1,0],[0.25,1,0],[0,0.75,0],[0,0.5,0],[0,0.25,0]];" parent="1" vertex="1">
            <mxGeometry x="570" y="709" width="340" height="200" as="geometry" />
          </mxCell>
        </object>
        <object placeholders="1" c4Name="System side management" c4Type="Context" c4Description="Система поддерживает температуру, заданную пользователем" label="&lt;font style=&quot;font-size: 16px&quot;&gt;&lt;b&gt;%c4Name%&lt;/b&gt;&lt;/font&gt;&lt;div&gt;[%c4Type%]&lt;/div&gt;&lt;br&gt;&lt;div&gt;&lt;font style=&quot;font-size: 11px&quot;&gt;&lt;font color=&quot;#cccccc&quot;&gt;%c4Description%&lt;/font&gt;&lt;/div&gt;" id="cI-tB0PRecpQT2LH2l9G-25">
          <mxCell style="rounded=1;whiteSpace=wrap;html=1;labelBackgroundColor=none;fillColor=#1061B0;fontColor=#ffffff;align=center;arcSize=10;strokeColor=#0D5091;metaEdit=1;resizable=0;points=[[0.25,0,0],[0.5,0,0],[0.75,0,0],[1,0.25,0],[1,0.5,0],[1,0.75,0],[0.75,1,0],[0.5,1,0],[0.25,1,0],[0,0.75,0],[0,0.5,0],[0,0.25,0]];" parent="1" vertex="1">
            <mxGeometry x="620" y="729" width="240" height="120" as="geometry" />
          </mxCell>
        </object>
        <object placeholders="1" c4Name="SystemTempMonitoringController" c4Type="SystemScopeBoundary" c4Application="Sub domain" label="&lt;font style=&quot;font-size: 16px&quot;&gt;&lt;b&gt;&lt;div style=&quot;text-align: left&quot;&gt;%c4Name%&lt;/div&gt;&lt;/b&gt;&lt;/font&gt;&lt;div style=&quot;text-align: left&quot;&gt;[%c4Application%]&lt;/div&gt;" id="cI-tB0PRecpQT2LH2l9G-26">
          <mxCell style="rounded=1;fontSize=11;whiteSpace=wrap;html=1;dashed=1;arcSize=20;fillColor=none;strokeColor=#666666;fontColor=#333333;labelBackgroundColor=none;align=left;verticalAlign=bottom;labelBorderColor=none;spacingTop=0;spacing=10;dashPattern=8 4;metaEdit=1;rotatable=0;perimeter=rectanglePerimeter;noLabel=0;labelPadding=0;allowArrows=0;connectable=0;expand=0;recursiveResize=0;editable=1;pointerEvents=0;absoluteArcSize=1;points=[[0.25,0,0],[0.5,0,0],[0.75,0,0],[1,0.25,0],[1,0.5,0],[1,0.75,0],[0.75,1,0],[0.5,1,0],[0.25,1,0],[0,0.75,0],[0,0.5,0],[0,0.25,0]];" parent="1" vertex="1">
            <mxGeometry x="940" y="709" width="340" height="200" as="geometry" />
          </mxCell>
        </object>
        <object placeholders="1" c4Name="System side monitoring" c4Type="Context" c4Description="Система собирает показатели приборов для управления температурой" label="&lt;font style=&quot;font-size: 16px&quot;&gt;&lt;b&gt;%c4Name%&lt;/b&gt;&lt;/font&gt;&lt;div&gt;[%c4Type%]&lt;/div&gt;&lt;br&gt;&lt;div&gt;&lt;font style=&quot;font-size: 11px&quot;&gt;&lt;font color=&quot;#cccccc&quot;&gt;%c4Description%&lt;/font&gt;&lt;/div&gt;" id="cI-tB0PRecpQT2LH2l9G-27">
          <mxCell style="rounded=1;whiteSpace=wrap;html=1;labelBackgroundColor=none;fillColor=#1061B0;fontColor=#ffffff;align=center;arcSize=10;strokeColor=#0D5091;metaEdit=1;resizable=0;points=[[0.25,0,0],[0.5,0,0],[0.75,0,0],[1,0.25,0],[1,0.5,0],[1,0.75,0],[0.75,1,0],[0.5,1,0],[0.25,1,0],[0,0.75,0],[0,0.5,0],[0,0.25,0]];" parent="1" vertex="1">
            <mxGeometry x="990" y="729" width="240" height="120" as="geometry" />
          </mxCell>
        </object>
        <object placeholders="1" c4Name="UserTempMonitoringController" c4Type="SystemScopeBoundary" c4Application="Sub domain" label="&lt;font style=&quot;font-size: 16px&quot;&gt;&lt;b&gt;&lt;div style=&quot;text-align: left&quot;&gt;%c4Name%&lt;/div&gt;&lt;/b&gt;&lt;/font&gt;&lt;div style=&quot;text-align: left&quot;&gt;[%c4Application%]&lt;/div&gt;" id="cI-tB0PRecpQT2LH2l9G-28">
          <mxCell style="rounded=1;fontSize=11;whiteSpace=wrap;html=1;dashed=1;arcSize=20;fillColor=none;strokeColor=#666666;fontColor=#333333;labelBackgroundColor=none;align=left;verticalAlign=bottom;labelBorderColor=none;spacingTop=0;spacing=10;dashPattern=8 4;metaEdit=1;rotatable=0;perimeter=rectanglePerimeter;noLabel=0;labelPadding=0;allowArrows=0;connectable=0;expand=0;recursiveResize=0;editable=1;pointerEvents=0;absoluteArcSize=1;points=[[0.25,0,0],[0.5,0,0],[0.75,0,0],[1,0.25,0],[1,0.5,0],[1,0.75,0],[0.75,1,0],[0.5,1,0],[0.25,1,0],[0,0.75,0],[0,0.5,0],[0,0.25,0]];" parent="1" vertex="1">
            <mxGeometry x="940" y="939" width="340" height="200" as="geometry" />
          </mxCell>
        </object>
        <object placeholders="1" c4Name="User side monitoring" c4Type="Context" c4Description="Пользователь может просматривать температуру у себя в доме" label="&lt;font style=&quot;font-size: 16px&quot;&gt;&lt;b&gt;%c4Name%&lt;/b&gt;&lt;/font&gt;&lt;div&gt;[%c4Type%]&lt;/div&gt;&lt;br&gt;&lt;div&gt;&lt;font style=&quot;font-size: 11px&quot;&gt;&lt;font color=&quot;#cccccc&quot;&gt;%c4Description%&lt;/font&gt;&lt;/div&gt;" id="cI-tB0PRecpQT2LH2l9G-29">
          <mxCell style="rounded=1;whiteSpace=wrap;html=1;labelBackgroundColor=none;fillColor=#1061B0;fontColor=#ffffff;align=center;arcSize=10;strokeColor=#0D5091;metaEdit=1;resizable=0;points=[[0.25,0,0],[0.5,0,0],[0.75,0,0],[1,0.25,0],[1,0.5,0],[1,0.75,0],[0.75,1,0],[0.5,1,0],[0.25,1,0],[0,0.75,0],[0,0.5,0],[0,0.25,0]];" parent="1" vertex="1">
            <mxGeometry x="990" y="959" width="240" height="120" as="geometry" />
          </mxCell>
        </object>
        <object placeholders="1" c4Name="Управление Устройствами" c4Type="SystemScopeBoundary" c4Application="Main" label="&lt;font style=&quot;font-size: 16px&quot;&gt;&lt;b&gt;&lt;div style=&quot;text-align: left&quot;&gt;%c4Name%&lt;/div&gt;&lt;/b&gt;&lt;/font&gt;&lt;div style=&quot;text-align: left&quot;&gt;[%c4Application%]&lt;/div&gt;" id="cI-tB0PRecpQT2LH2l9G-31">
          <mxCell style="rounded=1;fontSize=11;whiteSpace=wrap;html=1;dashed=1;arcSize=20;fillColor=none;strokeColor=#666666;fontColor=#333333;labelBackgroundColor=none;align=left;verticalAlign=bottom;labelBorderColor=none;spacingTop=0;spacing=10;dashPattern=8 4;metaEdit=1;rotatable=0;perimeter=rectanglePerimeter;noLabel=0;labelPadding=0;allowArrows=0;connectable=0;expand=0;recursiveResize=0;editable=1;pointerEvents=0;absoluteArcSize=1;points=[[0.25,0,0],[0.5,0,0],[0.75,0,0],[1,0.25,0],[1,0.5,0],[1,0.75,0],[0.75,1,0],[0.5,1,0],[0.25,1,0],[0,0.75,0],[0,0.5,0],[0,0.25,0]];" parent="1" vertex="1">
            <mxGeometry x="160" y="1290" width="1160" height="730" as="geometry" />
          </mxCell>
        </object>
        <object placeholders="1" c4Name="Управление отоплением" c4Type="SystemScopeBoundary" c4Application="Domain" label="&lt;font style=&quot;font-size: 16px&quot;&gt;&lt;b&gt;&lt;div style=&quot;text-align: left&quot;&gt;%c4Name%&lt;/div&gt;&lt;/b&gt;&lt;/font&gt;&lt;div style=&quot;text-align: left&quot;&gt;[%c4Application%]&lt;/div&gt;" id="cI-tB0PRecpQT2LH2l9G-36">
          <mxCell style="rounded=1;fontSize=11;whiteSpace=wrap;html=1;dashed=1;arcSize=20;fillColor=none;strokeColor=#666666;fontColor=#333333;labelBackgroundColor=none;align=left;verticalAlign=bottom;labelBorderColor=none;spacingTop=0;spacing=10;dashPattern=8 4;metaEdit=1;rotatable=0;perimeter=rectanglePerimeter;noLabel=0;labelPadding=0;allowArrows=0;connectable=0;expand=0;recursiveResize=0;editable=1;pointerEvents=0;absoluteArcSize=1;points=[[0.25,0,0],[0.5,0,0],[0.75,0,0],[1,0.25,0],[1,0.5,0],[1,0.75,0],[0.75,1,0],[0.5,1,0],[0.25,1,0],[0,0.75,0],[0,0.5,0],[0,0.25,0]];" parent="1" vertex="1">
            <mxGeometry x="320" y="1650" width="930" height="270" as="geometry" />
          </mxCell>
        </object>
        <object placeholders="1" c4Name="Мониторинг температуры" c4Type="SystemScopeBoundary" c4Application="Domain" label="&lt;font style=&quot;font-size: 16px&quot;&gt;&lt;b&gt;&lt;div style=&quot;text-align: left&quot;&gt;%c4Name%&lt;/div&gt;&lt;/b&gt;&lt;/font&gt;&lt;div style=&quot;text-align: left&quot;&gt;[%c4Application%]&lt;/div&gt;" id="cI-tB0PRecpQT2LH2l9G-37">
          <mxCell style="rounded=1;fontSize=11;whiteSpace=wrap;html=1;dashed=1;arcSize=20;fillColor=none;strokeColor=#666666;fontColor=#333333;labelBackgroundColor=none;align=left;verticalAlign=bottom;labelBorderColor=none;spacingTop=0;spacing=10;dashPattern=8 4;metaEdit=1;rotatable=0;perimeter=rectanglePerimeter;noLabel=0;labelPadding=0;allowArrows=0;connectable=0;expand=0;recursiveResize=0;editable=1;pointerEvents=0;absoluteArcSize=1;points=[[0.25,0,0],[0.5,0,0],[0.75,0,0],[1,0.25,0],[1,0.5,0],[1,0.75,0],[0.75,1,0],[0.5,1,0],[0.25,1,0],[0,0.75,0],[0,0.5,0],[0,0.25,0]];" parent="1" vertex="1">
            <mxGeometry x="320" y="1330" width="920" height="270" as="geometry" />
          </mxCell>
        </object>
        <object placeholders="1" c4Name="User side management" c4Type="Context" c4Description="Возможность пользователя управлять температурой в доме" label="&lt;font style=&quot;font-size: 16px&quot;&gt;&lt;b&gt;%c4Name%&lt;/b&gt;&lt;/font&gt;&lt;div&gt;[%c4Type%]&lt;/div&gt;&lt;br&gt;&lt;div&gt;&lt;font style=&quot;font-size: 11px&quot;&gt;&lt;font color=&quot;#cccccc&quot;&gt;%c4Description%&lt;/font&gt;&lt;/div&gt;" id="cI-tB0PRecpQT2LH2l9G-38">
          <mxCell style="rounded=1;whiteSpace=wrap;html=1;labelBackgroundColor=none;fillColor=#1061B0;fontColor=#ffffff;align=center;arcSize=10;strokeColor=#0D5091;metaEdit=1;resizable=0;points=[[0.25,0,0],[0.5,0,0],[0.75,0,0],[1,0.25,0],[1,0.5,0],[1,0.75,0],[0.75,1,0],[0.5,1,0],[0.25,1,0],[0,0.75,0],[0,0.5,0],[0,0.25,0]];" parent="1" vertex="1">
            <mxGeometry x="690" y="1360" width="240" height="120" as="geometry" />
          </mxCell>
        </object>
        <object placeholders="1" c4Name="System side management" c4Type="Context" c4Description="Система поддерживает температуру, заданную пользователем" label="&lt;font style=&quot;font-size: 16px&quot;&gt;&lt;b&gt;%c4Name%&lt;/b&gt;&lt;/font&gt;&lt;div&gt;[%c4Type%]&lt;/div&gt;&lt;br&gt;&lt;div&gt;&lt;font style=&quot;font-size: 11px&quot;&gt;&lt;font color=&quot;#cccccc&quot;&gt;%c4Description%&lt;/font&gt;&lt;/div&gt;" id="cI-tB0PRecpQT2LH2l9G-39">
          <mxCell style="rounded=1;whiteSpace=wrap;html=1;labelBackgroundColor=none;fillColor=#1061B0;fontColor=#ffffff;align=center;arcSize=10;strokeColor=#0D5091;metaEdit=1;resizable=0;points=[[0.25,0,0],[0.5,0,0],[0.75,0,0],[1,0.25,0],[1,0.5,0],[1,0.75,0],[0.75,1,0],[0.5,1,0],[0.25,1,0],[0,0.75,0],[0,0.5,0],[0,0.25,0]];" parent="1" vertex="1">
            <mxGeometry x="690" y="1660" width="240" height="120" as="geometry" />
          </mxCell>
        </object>
        <object placeholders="1" c4Name="System side monitoring" c4Type="Context" c4Description="Система собирает показатели приборов для управления температурой" label="&lt;font style=&quot;font-size: 16px&quot;&gt;&lt;b&gt;%c4Name%&lt;/b&gt;&lt;/font&gt;&lt;div&gt;[%c4Type%]&lt;/div&gt;&lt;br&gt;&lt;div&gt;&lt;font style=&quot;font-size: 11px&quot;&gt;&lt;font color=&quot;#cccccc&quot;&gt;%c4Description%&lt;/font&gt;&lt;/div&gt;" id="cI-tB0PRecpQT2LH2l9G-40">
          <mxCell style="rounded=1;whiteSpace=wrap;html=1;labelBackgroundColor=none;fillColor=#1061B0;fontColor=#ffffff;align=center;arcSize=10;strokeColor=#0D5091;metaEdit=1;resizable=0;points=[[0.25,0,0],[0.5,0,0],[0.75,0,0],[1,0.25,0],[1,0.5,0],[1,0.75,0],[0.75,1,0],[0.5,1,0],[0.25,1,0],[0,0.75,0],[0,0.5,0],[0,0.25,0]];" parent="1" vertex="1">
            <mxGeometry x="990" y="1790" width="240" height="120" as="geometry" />
          </mxCell>
        </object>
        <object placeholders="1" c4Name="User side monitoring" c4Type="Context" c4Description="Пользователь может просматривать температуру у себя в доме" label="&lt;font style=&quot;font-size: 16px&quot;&gt;&lt;b&gt;%c4Name%&lt;/b&gt;&lt;/font&gt;&lt;div&gt;[%c4Type%]&lt;/div&gt;&lt;br&gt;&lt;div&gt;&lt;font style=&quot;font-size: 11px&quot;&gt;&lt;font color=&quot;#cccccc&quot;&gt;%c4Description%&lt;/font&gt;&lt;/div&gt;" id="cI-tB0PRecpQT2LH2l9G-41">
          <mxCell style="rounded=1;whiteSpace=wrap;html=1;labelBackgroundColor=none;fillColor=#1061B0;fontColor=#ffffff;align=center;arcSize=10;strokeColor=#0D5091;metaEdit=1;resizable=0;points=[[0.25,0,0],[0.5,0,0],[0.75,0,0],[1,0.25,0],[1,0.5,0],[1,0.75,0],[0.75,1,0],[0.5,1,0],[0.25,1,0],[0,0.75,0],[0,0.5,0],[0,0.25,0]];" parent="1" vertex="1">
            <mxGeometry x="340" y="1725" width="240" height="120" as="geometry" />
          </mxCell>
        </object>
        <object placeholders="1" c4Type="Relationship" c4Description="Передает параметры текущих температур" label="&lt;div style=&quot;text-align: left&quot;&gt;&lt;div style=&quot;text-align: center&quot;&gt;&lt;b&gt;%c4Description%&lt;/b&gt;&lt;/div&gt;" id="cI-tB0PRecpQT2LH2l9G-43">
          <mxCell style="endArrow=blockThin;html=1;fontSize=10;fontColor=#404040;strokeWidth=1;endFill=1;strokeColor=#828282;elbow=vertical;metaEdit=1;endSize=14;startSize=14;jumpStyle=arc;jumpSize=16;rounded=0;edgeStyle=orthogonalEdgeStyle;exitX=0.75;exitY=0;exitDx=0;exitDy=0;exitPerimeter=0;entryX=1;entryY=0.5;entryDx=0;entryDy=0;entryPerimeter=0;" parent="1" source="cI-tB0PRecpQT2LH2l9G-40" target="cI-tB0PRecpQT2LH2l9G-39" edge="1">
            <mxGeometry width="240" relative="1" as="geometry">
              <mxPoint x="1411" y="1600" as="sourcePoint" />
              <mxPoint x="1410" y="1846" as="targetPoint" />
            </mxGeometry>
          </mxCell>
        </object>
        <object placeholders="1" c4Type="Relationship" c4Description="Создает параметры температуы" label="&lt;div style=&quot;text-align: left&quot;&gt;&lt;div style=&quot;text-align: center&quot;&gt;&lt;b&gt;%c4Description%&lt;/b&gt;&lt;/div&gt;" id="cI-tB0PRecpQT2LH2l9G-44">
          <mxCell style="endArrow=blockThin;html=1;fontSize=10;fontColor=#404040;strokeWidth=1;endFill=1;strokeColor=#828282;elbow=vertical;metaEdit=1;endSize=14;startSize=14;jumpStyle=arc;jumpSize=16;rounded=0;edgeStyle=orthogonalEdgeStyle;exitX=0.5;exitY=1;exitDx=0;exitDy=0;exitPerimeter=0;entryX=0.5;entryY=0;entryDx=0;entryDy=0;entryPerimeter=0;" parent="1" source="cI-tB0PRecpQT2LH2l9G-38" target="cI-tB0PRecpQT2LH2l9G-39" edge="1">
            <mxGeometry width="240" relative="1" as="geometry">
              <mxPoint x="610" y="1710" as="sourcePoint" />
              <mxPoint x="850" y="1710" as="targetPoint" />
              <Array as="points">
                <mxPoint x="810" y="1630" />
                <mxPoint x="810" y="1630" />
              </Array>
            </mxGeometry>
          </mxCell>
        </object>
        <object placeholders="1" c4Type="Relationship" c4Description="Передает параметры текущей температуры в доме" label="&lt;div style=&quot;text-align: left&quot;&gt;&lt;div style=&quot;text-align: center&quot;&gt;&lt;b&gt;%c4Description%&lt;/b&gt;&lt;/div&gt;" id="cI-tB0PRecpQT2LH2l9G-46">
          <mxCell style="endArrow=blockThin;html=1;fontSize=10;fontColor=#404040;strokeWidth=1;endFill=1;strokeColor=#828282;elbow=vertical;metaEdit=1;endSize=14;startSize=14;jumpStyle=arc;jumpSize=16;rounded=0;edgeStyle=orthogonalEdgeStyle;exitX=0;exitY=0.5;exitDx=0;exitDy=0;exitPerimeter=0;entryX=1;entryY=0.5;entryDx=0;entryDy=0;entryPerimeter=0;" parent="1" source="cI-tB0PRecpQT2LH2l9G-40" target="cI-tB0PRecpQT2LH2l9G-41" edge="1">
            <mxGeometry width="240" relative="1" as="geometry">
              <mxPoint x="610" y="1590" as="sourcePoint" />
              <mxPoint x="850" y="1590" as="targetPoint" />
              <Array as="points">
                <mxPoint x="990" y="1830" />
                <mxPoint x="650" y="1830" />
                <mxPoint x="650" y="1785" />
              </Array>
            </mxGeometry>
          </mxCell>
        </object>
        <mxCell id="cI-tB0PRecpQT2LH2l9G-47" value="&lt;h2&gt;&lt;font style=&quot;font-size: 18px;&quot;&gt;Разделение на поддомены&lt;/font&gt;&lt;/h2&gt;" style="text;html=1;align=center;verticalAlign=middle;whiteSpace=wrap;rounded=0;" parent="1" vertex="1">
          <mxGeometry x="440" y="100" width="650" height="90" as="geometry" />
        </mxCell>
        <mxCell id="cI-tB0PRecpQT2LH2l9G-48" value="&lt;h2&gt;&lt;font style=&quot;font-size: 18px;&quot;&gt;Выделение контекстов&lt;/font&gt;&lt;/h2&gt;" style="text;html=1;align=center;verticalAlign=middle;whiteSpace=wrap;rounded=0;" parent="1" vertex="1">
          <mxGeometry x="390" y="610" width="650" height="90" as="geometry" />
        </mxCell>
        <mxCell id="cI-tB0PRecpQT2LH2l9G-49" value="&lt;h2&gt;Контекстная карта&lt;/h2&gt;" style="text;html=1;align=center;verticalAlign=middle;whiteSpace=wrap;rounded=0;" parent="1" vertex="1">
          <mxGeometry x="420" y="1200" width="650" height="90" as="geometry" />
        </mxCell>
        <mxCell id="cI-tB0PRecpQT2LH2l9G-51" value="&lt;h2&gt;&lt;font style=&quot;font-size: 24px;&quot;&gt;1.4.С4 Context diagram&lt;/font&gt;&lt;/h2&gt;" style="text;html=1;align=center;verticalAlign=middle;whiteSpace=wrap;rounded=0;" parent="1" vertex="1">
          <mxGeometry x="1790" y="60" width="650" height="90" as="geometry" />
        </mxCell>
        <object placeholders="1" c4Name="User" c4Type="Person" c4Description="Description of person." label="&lt;font style=&quot;font-size: 16px&quot;&gt;&lt;b&gt;%c4Name%&lt;/b&gt;&lt;/font&gt;&lt;div&gt;[%c4Type%]&lt;/div&gt;&lt;br&gt;&lt;div&gt;&lt;font style=&quot;font-size: 11px&quot;&gt;&lt;font color=&quot;#cccccc&quot;&gt;%c4Description%&lt;/font&gt;&lt;/div&gt;" id="cI-tB0PRecpQT2LH2l9G-52">
          <mxCell style="html=1;fontSize=11;dashed=0;whiteSpace=wrap;fillColor=#083F75;strokeColor=#06315C;fontColor=#ffffff;shape=mxgraph.c4.person2;align=center;metaEdit=1;points=[[0.5,0,0],[1,0.5,0],[1,0.75,0],[0.75,1,0],[0.5,1,0],[0.25,1,0],[0,0.75,0],[0,0.5,0]];resizable=0;" parent="1" vertex="1">
            <mxGeometry x="2015" y="190" width="200" height="180" as="geometry" />
          </mxCell>
        </object>
        <object placeholders="1" c4Name="SmartHomeMonolith" c4Type="Software System" c4Description="Монолит управляющий температурой в доме" label="&lt;font style=&quot;font-size: 16px&quot;&gt;&lt;b&gt;%c4Name%&lt;/b&gt;&lt;/font&gt;&lt;div&gt;[%c4Type%]&lt;/div&gt;&lt;br&gt;&lt;div&gt;&lt;font style=&quot;font-size: 11px&quot;&gt;&lt;font color=&quot;#cccccc&quot;&gt;%c4Description%&lt;/font&gt;&lt;/div&gt;" id="cI-tB0PRecpQT2LH2l9G-53">
          <mxCell style="rounded=1;whiteSpace=wrap;html=1;labelBackgroundColor=none;fillColor=#1061B0;fontColor=#ffffff;align=center;arcSize=10;strokeColor=#0D5091;metaEdit=1;resizable=0;points=[[0.25,0,0],[0.5,0,0],[0.75,0,0],[1,0.25,0],[1,0.5,0],[1,0.75,0],[0.75,1,0],[0.5,1,0],[0.25,1,0],[0,0.75,0],[0,0.5,0],[0,0.25,0]];" parent="1" vertex="1">
            <mxGeometry x="1995" y="530" width="240" height="120" as="geometry" />
          </mxCell>
        </object>
        <object placeholders="1" c4Name="Температурные датчики" c4Type="Hardware" c4Description="Приборы установленные в доме" label="&lt;font style=&quot;font-size: 16px&quot;&gt;&lt;b&gt;%c4Name%&lt;/b&gt;&lt;/font&gt;&lt;div&gt;[%c4Type%]&lt;/div&gt;&lt;br&gt;&lt;div&gt;&lt;font style=&quot;font-size: 11px&quot;&gt;&lt;font color=&quot;#cccccc&quot;&gt;%c4Description%&lt;/font&gt;&lt;/div&gt;" id="cI-tB0PRecpQT2LH2l9G-54">
          <mxCell style="rounded=1;whiteSpace=wrap;html=1;labelBackgroundColor=none;fillColor=#8C8496;fontColor=#ffffff;align=center;arcSize=10;strokeColor=#736782;metaEdit=1;resizable=0;points=[[0.25,0,0],[0.5,0,0],[0.75,0,0],[1,0.25,0],[1,0.5,0],[1,0.75,0],[0.75,1,0],[0.5,1,0],[0.25,1,0],[0,0.75,0],[0,0.5,0],[0,0.25,0]];" parent="1" vertex="1">
            <mxGeometry x="1995" y="780" width="240" height="120" as="geometry" />
          </mxCell>
        </object>
        <object placeholders="1" c4Type="Relationship" c4Description="1. Пользователь задает и просматривает настройки системы" label="&lt;div style=&quot;text-align: left&quot;&gt;&lt;div style=&quot;text-align: center&quot;&gt;&lt;b&gt;%c4Description%&lt;/b&gt;&lt;/div&gt;" id="cI-tB0PRecpQT2LH2l9G-55">
          <mxCell style="endArrow=blockThin;html=1;fontSize=10;fontColor=#404040;strokeWidth=1;endFill=1;strokeColor=#828282;elbow=vertical;metaEdit=1;endSize=14;startSize=14;jumpStyle=arc;jumpSize=16;rounded=0;edgeStyle=orthogonalEdgeStyle;exitX=0.5;exitY=1;exitDx=0;exitDy=0;exitPerimeter=0;" parent="1" source="cI-tB0PRecpQT2LH2l9G-52" target="cI-tB0PRecpQT2LH2l9G-53" edge="1">
            <mxGeometry width="240" relative="1" as="geometry">
              <mxPoint x="1930" y="630" as="sourcePoint" />
              <mxPoint x="2170" y="630" as="targetPoint" />
            </mxGeometry>
          </mxCell>
        </object>
        <object placeholders="1" c4Type="Relationship" c4Description="2) Система просматривает и контролирует показатели температур" label="&lt;div style=&quot;text-align: left&quot;&gt;&lt;div style=&quot;text-align: center&quot;&gt;&lt;b&gt;%c4Description%&lt;/b&gt;&lt;/div&gt;" id="cI-tB0PRecpQT2LH2l9G-56">
          <mxCell style="endArrow=blockThin;html=1;fontSize=10;fontColor=#404040;strokeWidth=1;endFill=1;strokeColor=#828282;elbow=vertical;metaEdit=1;endSize=14;startSize=14;jumpStyle=arc;jumpSize=16;rounded=0;edgeStyle=orthogonalEdgeStyle;exitX=0.5;exitY=1;exitDx=0;exitDy=0;exitPerimeter=0;entryX=0.5;entryY=0;entryDx=0;entryDy=0;entryPerimeter=0;" parent="1" source="cI-tB0PRecpQT2LH2l9G-53" target="cI-tB0PRecpQT2LH2l9G-54" edge="1">
            <mxGeometry width="240" relative="1" as="geometry">
              <mxPoint x="1930" y="630" as="sourcePoint" />
              <mxPoint x="2170" y="630" as="targetPoint" />
            </mxGeometry>
          </mxCell>
        </object>
        <mxCell id="cI-tB0PRecpQT2LH2l9G-57" value="&lt;h1&gt;&lt;font style=&quot;font-size: 36px;&quot;&gt;Подзадание 1.2: Архитектура микросервисов&lt;/font&gt;&lt;/h1&gt;" style="text;html=1;align=center;verticalAlign=middle;whiteSpace=wrap;rounded=0;" parent="1" vertex="1">
          <mxGeometry x="1045" y="2440" width="650" height="90" as="geometry" />
        </mxCell>
        <object placeholders="1" c4Name="TemeratureManager" c4Type="Microservice" c4Description="Сервис отвественный за управление температурой" label="&lt;font style=&quot;font-size: 16px&quot;&gt;&lt;b&gt;%c4Name%&lt;/b&gt;&lt;/font&gt;&lt;div&gt;[%c4Type%]&lt;/div&gt;&lt;br&gt;&lt;div&gt;&lt;font style=&quot;font-size: 11px&quot;&gt;&lt;font color=&quot;#cccccc&quot;&gt;%c4Description%&lt;/font&gt;&lt;/div&gt;" id="cI-tB0PRecpQT2LH2l9G-58">
          <mxCell style="rounded=1;whiteSpace=wrap;html=1;labelBackgroundColor=none;fillColor=#1061B0;fontColor=#ffffff;align=center;arcSize=10;strokeColor=#0D5091;metaEdit=1;resizable=0;points=[[0.25,0,0],[0.5,0,0],[0.75,0,0],[1,0.25,0],[1,0.5,0],[1,0.75,0],[0.75,1,0],[0.5,1,0],[0.25,1,0],[0,0.75,0],[0,0.5,0],[0,0.25,0]];" parent="1" vertex="1">
            <mxGeometry x="960" y="3240" width="240" height="120" as="geometry" />
          </mxCell>
        </object>
        <mxCell id="cI-tB0PRecpQT2LH2l9G-59" value="&lt;h1&gt;&lt;font style=&quot;font-size: 36px;&quot;&gt;Подзадание 1.1: Анализ и планирование&lt;/font&gt;&lt;/h1&gt;" style="text;html=1;align=center;verticalAlign=middle;whiteSpace=wrap;rounded=0;" parent="1" vertex="1">
          <mxGeometry x="1004" y="-150" width="650" height="90" as="geometry" />
        </mxCell>
        <object placeholders="1" c4Name="TemeratureMonitor" c4Type="Microservice" c4Description="Сервис ответственные за слежением за температурами" label="&lt;font style=&quot;font-size: 16px&quot;&gt;&lt;b&gt;%c4Name%&lt;/b&gt;&lt;/font&gt;&lt;div&gt;[%c4Type%]&lt;/div&gt;&lt;br&gt;&lt;div&gt;&lt;font style=&quot;font-size: 11px&quot;&gt;&lt;font color=&quot;#cccccc&quot;&gt;%c4Description%&lt;/font&gt;&lt;/div&gt;" id="cI-tB0PRecpQT2LH2l9G-61">
          <mxCell style="rounded=1;whiteSpace=wrap;html=1;labelBackgroundColor=none;fillColor=#1061B0;fontColor=#ffffff;align=center;arcSize=10;strokeColor=#0D5091;metaEdit=1;resizable=0;points=[[0.25,0,0],[0.5,0,0],[0.75,0,0],[1,0.25,0],[1,0.5,0],[1,0.75,0],[0.75,1,0],[0.5,1,0],[0.25,1,0],[0,0.75,0],[0,0.5,0],[0,0.25,0]];" parent="1" vertex="1">
            <mxGeometry x="1500" y="3250" width="240" height="120" as="geometry" />
          </mxCell>
        </object>
        <mxCell id="D4GbOzt9CynH11Gv_l5v-5" style="edgeStyle=orthogonalEdgeStyle;rounded=0;orthogonalLoop=1;jettySize=auto;html=1;exitX=0.25;exitY=1;exitDx=0;exitDy=0;exitPerimeter=0;" parent="1" source="D4GbOzt9CynH11Gv_l5v-1" target="cI-tB0PRecpQT2LH2l9G-58" edge="1">
          <mxGeometry relative="1" as="geometry" />
        </mxCell>
        <mxCell id="D4GbOzt9CynH11Gv_l5v-8" value="Запрос" style="edgeLabel;html=1;align=center;verticalAlign=middle;resizable=0;points=[];" parent="D4GbOzt9CynH11Gv_l5v-5" vertex="1" connectable="0">
          <mxGeometry x="0.0454" y="2" relative="1" as="geometry">
            <mxPoint x="-1" as="offset" />
          </mxGeometry>
        </mxCell>
        <mxCell id="D4GbOzt9CynH11Gv_l5v-6" style="edgeStyle=orthogonalEdgeStyle;rounded=0;orthogonalLoop=1;jettySize=auto;html=1;exitX=0.75;exitY=1;exitDx=0;exitDy=0;exitPerimeter=0;" parent="1" source="D4GbOzt9CynH11Gv_l5v-1" target="cI-tB0PRecpQT2LH2l9G-61" edge="1">
          <mxGeometry relative="1" as="geometry" />
        </mxCell>
        <mxCell id="D4GbOzt9CynH11Gv_l5v-7" value="Запрос" style="edgeLabel;html=1;align=center;verticalAlign=middle;resizable=0;points=[];" parent="D4GbOzt9CynH11Gv_l5v-6" vertex="1" connectable="0">
          <mxGeometry x="-0.2525" y="4" relative="1" as="geometry">
            <mxPoint as="offset" />
          </mxGeometry>
        </mxCell>
        <object placeholders="1" c4Name="ApiGateway" c4Type="Microservice" c4Description="Сервис отвественный за маршрутизацию запросов" label="&lt;font style=&quot;font-size: 16px&quot;&gt;&lt;b&gt;%c4Name%&lt;/b&gt;&lt;/font&gt;&lt;div&gt;[%c4Type%]&lt;/div&gt;&lt;br&gt;&lt;div&gt;&lt;font style=&quot;font-size: 11px&quot;&gt;&lt;font color=&quot;#cccccc&quot;&gt;%c4Description%&lt;/font&gt;&lt;/div&gt;" id="D4GbOzt9CynH11Gv_l5v-1">
          <mxCell style="rounded=1;whiteSpace=wrap;html=1;labelBackgroundColor=none;fillColor=#1061B0;fontColor=#ffffff;align=center;arcSize=10;strokeColor=#0D5091;metaEdit=1;resizable=0;points=[[0.25,0,0],[0.5,0,0],[0.75,0,0],[1,0.25,0],[1,0.5,0],[1,0.75,0],[0.75,1,0],[0.5,1,0],[0.25,1,0],[0,0.75,0],[0,0.5,0],[0,0.25,0]];" parent="1" vertex="1">
            <mxGeometry x="1240" y="3020" width="240" height="120" as="geometry" />
          </mxCell>
        </object>
        <object placeholders="1" c4Name="User" c4Type="Person" c4Description="Владелец дома" label="&lt;font style=&quot;font-size: 16px&quot;&gt;&lt;b&gt;%c4Name%&lt;/b&gt;&lt;/font&gt;&lt;div&gt;[%c4Type%]&lt;/div&gt;&lt;br&gt;&lt;div&gt;&lt;font style=&quot;font-size: 11px&quot;&gt;&lt;font color=&quot;#cccccc&quot;&gt;%c4Description%&lt;/font&gt;&lt;/div&gt;" id="D4GbOzt9CynH11Gv_l5v-2">
          <mxCell style="html=1;fontSize=11;dashed=0;whiteSpace=wrap;fillColor=#083F75;strokeColor=#06315C;fontColor=#ffffff;shape=mxgraph.c4.person2;align=center;metaEdit=1;points=[[0.5,0,0],[1,0.5,0],[1,0.75,0],[0.75,1,0],[0.5,1,0],[0.25,1,0],[0,0.75,0],[0,0.5,0]];resizable=0;" parent="1" vertex="1">
            <mxGeometry x="1260" y="2720" width="200" height="180" as="geometry" />
          </mxCell>
        </object>
        <object placeholders="1" c4Type="Relationship" c4Description="Запрос" label="&lt;div style=&quot;text-align: left&quot;&gt;&lt;div style=&quot;text-align: center&quot;&gt;&lt;b&gt;%c4Description%&lt;/b&gt;&lt;/div&gt;" id="D4GbOzt9CynH11Gv_l5v-3">
          <mxCell style="endArrow=blockThin;html=1;fontSize=10;fontColor=#404040;strokeWidth=1;endFill=1;strokeColor=#828282;elbow=vertical;metaEdit=1;endSize=14;startSize=14;jumpStyle=arc;jumpSize=16;rounded=0;edgeStyle=orthogonalEdgeStyle;exitX=0.5;exitY=1;exitDx=0;exitDy=0;exitPerimeter=0;entryX=0.5;entryY=0;entryDx=0;entryDy=0;entryPerimeter=0;" parent="1" source="D4GbOzt9CynH11Gv_l5v-2" target="D4GbOzt9CynH11Gv_l5v-1" edge="1">
            <mxGeometry width="240" relative="1" as="geometry">
              <mxPoint x="1490" y="2980" as="sourcePoint" />
              <mxPoint x="1730" y="2980" as="targetPoint" />
            </mxGeometry>
          </mxCell>
        </object>
        <object placeholders="1" c4Name="Temperature manager database" c4Type="Container" c4Technology="Postgres" c4Description="Ответственна за хранение данных о текущих конфигурациях температур" label="&lt;font style=&quot;font-size: 16px&quot;&gt;&lt;b&gt;%c4Name%&lt;/b&gt;&lt;/font&gt;&lt;div&gt;[%c4Type%:&amp;nbsp;%c4Technology%]&lt;/div&gt;&lt;br&gt;&lt;div&gt;&lt;font style=&quot;font-size: 11px&quot;&gt;&lt;font color=&quot;#E6E6E6&quot;&gt;%c4Description%&lt;/font&gt;&lt;/div&gt;" id="D4GbOzt9CynH11Gv_l5v-9">
          <mxCell style="shape=cylinder3;size=15;whiteSpace=wrap;html=1;boundedLbl=1;rounded=0;labelBackgroundColor=none;fillColor=#23A2D9;fontSize=12;fontColor=#ffffff;align=center;strokeColor=#0E7DAD;metaEdit=1;points=[[0.5,0,0],[1,0.25,0],[1,0.5,0],[1,0.75,0],[0.5,1,0],[0,0.75,0],[0,0.5,0],[0,0.25,0]];resizable=0;" parent="1" vertex="1">
            <mxGeometry x="645" y="3240" width="240" height="120" as="geometry" />
          </mxCell>
        </object>
        <object placeholders="1" c4Name="TemperatureMonitorDatabase" c4Type="Container" c4Technology="Postgres" c4Description="Отвественна за хранение данных о текущих температурах в доме" label="&lt;font style=&quot;font-size: 16px&quot;&gt;&lt;b&gt;%c4Name%&lt;/b&gt;&lt;/font&gt;&lt;div&gt;[%c4Type%:&amp;nbsp;%c4Technology%]&lt;/div&gt;&lt;br&gt;&lt;div&gt;&lt;font style=&quot;font-size: 11px&quot;&gt;&lt;font color=&quot;#E6E6E6&quot;&gt;%c4Description%&lt;/font&gt;&lt;/div&gt;" id="D4GbOzt9CynH11Gv_l5v-10">
          <mxCell style="shape=cylinder3;size=15;whiteSpace=wrap;html=1;boundedLbl=1;rounded=0;labelBackgroundColor=none;fillColor=#23A2D9;fontSize=12;fontColor=#ffffff;align=center;strokeColor=#0E7DAD;metaEdit=1;points=[[0.5,0,0],[1,0.25,0],[1,0.5,0],[1,0.75,0],[0.5,1,0],[0,0.75,0],[0,0.5,0],[0,0.25,0]];resizable=0;" parent="1" vertex="1">
            <mxGeometry x="1810" y="3250" width="240" height="120" as="geometry" />
          </mxCell>
        </object>
        <mxCell id="D4GbOzt9CynH11Gv_l5v-13" style="edgeStyle=orthogonalEdgeStyle;rounded=0;orthogonalLoop=1;jettySize=auto;html=1;exitX=0;exitY=0.25;exitDx=0;exitDy=0;exitPerimeter=0;entryX=1;entryY=0.25;entryDx=0;entryDy=0;entryPerimeter=0;" parent="1" source="cI-tB0PRecpQT2LH2l9G-58" target="D4GbOzt9CynH11Gv_l5v-9" edge="1">
          <mxGeometry relative="1" as="geometry" />
        </mxCell>
        <mxCell id="D4GbOzt9CynH11Gv_l5v-14" style="edgeStyle=orthogonalEdgeStyle;rounded=0;orthogonalLoop=1;jettySize=auto;html=1;exitX=1;exitY=0.75;exitDx=0;exitDy=0;exitPerimeter=0;entryX=0;entryY=0.75;entryDx=0;entryDy=0;entryPerimeter=0;" parent="1" source="D4GbOzt9CynH11Gv_l5v-9" target="cI-tB0PRecpQT2LH2l9G-58" edge="1">
          <mxGeometry relative="1" as="geometry" />
        </mxCell>
        <mxCell id="D4GbOzt9CynH11Gv_l5v-16" style="edgeStyle=orthogonalEdgeStyle;rounded=0;orthogonalLoop=1;jettySize=auto;html=1;exitX=1;exitY=0.25;exitDx=0;exitDy=0;exitPerimeter=0;entryX=0;entryY=0.25;entryDx=0;entryDy=0;entryPerimeter=0;" parent="1" source="cI-tB0PRecpQT2LH2l9G-61" target="D4GbOzt9CynH11Gv_l5v-10" edge="1">
          <mxGeometry relative="1" as="geometry" />
        </mxCell>
        <mxCell id="D4GbOzt9CynH11Gv_l5v-17" style="edgeStyle=orthogonalEdgeStyle;rounded=0;orthogonalLoop=1;jettySize=auto;html=1;exitX=0;exitY=0.75;exitDx=0;exitDy=0;exitPerimeter=0;entryX=1;entryY=0.75;entryDx=0;entryDy=0;entryPerimeter=0;" parent="1" source="D4GbOzt9CynH11Gv_l5v-10" target="cI-tB0PRecpQT2LH2l9G-61" edge="1">
          <mxGeometry relative="1" as="geometry" />
        </mxCell>
        <object placeholders="1" c4Name="Containers diagram" c4Type="SystemScopeBoundary" c4Application="C4" label="&lt;font style=&quot;font-size: 16px&quot;&gt;&lt;b&gt;&lt;div style=&quot;text-align: left&quot;&gt;%c4Name%&lt;/div&gt;&lt;/b&gt;&lt;/font&gt;&lt;div style=&quot;text-align: left&quot;&gt;[%c4Application%]&lt;/div&gt;" id="D4GbOzt9CynH11Gv_l5v-33">
          <mxCell style="rounded=1;fontSize=11;whiteSpace=wrap;html=1;dashed=1;arcSize=20;fillColor=none;strokeColor=#666666;fontColor=#333333;labelBackgroundColor=none;align=left;verticalAlign=bottom;labelBorderColor=none;spacingTop=0;spacing=10;dashPattern=8 4;metaEdit=1;rotatable=0;perimeter=rectanglePerimeter;noLabel=0;labelPadding=0;allowArrows=0;connectable=0;expand=0;recursiveResize=0;editable=1;pointerEvents=0;absoluteArcSize=1;points=[[0.25,0,0],[0.5,0,0],[0.75,0,0],[1,0.25,0],[1,0.5,0],[1,0.75,0],[0.75,1,0],[0.5,1,0],[0.25,1,0],[0,0.75,0],[0,0.5,0],[0,0.25,0]];" parent="1" vertex="1">
            <mxGeometry x="550" y="2710" width="1650" height="760" as="geometry" />
          </mxCell>
        </object>
        <mxCell id="D4GbOzt9CynH11Gv_l5v-61" style="edgeStyle=orthogonalEdgeStyle;rounded=0;orthogonalLoop=1;jettySize=auto;html=1;exitX=0.5;exitY=1;exitDx=0;exitDy=0;exitPerimeter=0;" parent="1" source="D4GbOzt9CynH11Gv_l5v-35" target="D4GbOzt9CynH11Gv_l5v-38" edge="1">
          <mxGeometry relative="1" as="geometry" />
        </mxCell>
        <object placeholders="1" c4Name="UserConfigController" c4Type="Component" c4Technology="Spring mvc" c4Description="Возможность пользователем настривать настройки приборов" label="&lt;font style=&quot;font-size: 16px&quot;&gt;&lt;b&gt;%c4Name%&lt;/b&gt;&lt;/font&gt;&lt;div&gt;[%c4Type%: %c4Technology%]&lt;/div&gt;&lt;br&gt;&lt;div&gt;&lt;font style=&quot;font-size: 11px&quot;&gt;%c4Description%&lt;/font&gt;&lt;/div&gt;" id="D4GbOzt9CynH11Gv_l5v-35">
          <mxCell style="rounded=1;whiteSpace=wrap;html=1;labelBackgroundColor=none;fillColor=#63BEF2;fontColor=#ffffff;align=center;arcSize=6;strokeColor=#2086C9;metaEdit=1;resizable=0;points=[[0.25,0,0],[0.5,0,0],[0.75,0,0],[1,0.25,0],[1,0.5,0],[1,0.75,0],[0.75,1,0],[0.5,1,0],[0.25,1,0],[0,0.75,0],[0,0.5,0],[0,0.25,0]];" parent="1" vertex="1">
            <mxGeometry x="770" y="4389" width="240" height="120" as="geometry" />
          </mxCell>
        </object>
        <object placeholders="1" c4Name="Temperature manager database" c4Type="Container" c4Technology="Postgres" c4Description="Конфигурации конкретный квартир/домов" label="&lt;font style=&quot;font-size: 16px&quot;&gt;&lt;b&gt;%c4Name%&lt;/b&gt;&lt;/font&gt;&lt;div&gt;[%c4Type%:&amp;nbsp;%c4Technology%]&lt;/div&gt;&lt;br&gt;&lt;div&gt;&lt;font style=&quot;font-size: 11px&quot;&gt;&lt;font color=&quot;#E6E6E6&quot;&gt;%c4Description%&lt;/font&gt;&lt;/div&gt;" id="D4GbOzt9CynH11Gv_l5v-37">
          <mxCell style="shape=cylinder3;size=15;whiteSpace=wrap;html=1;boundedLbl=1;rounded=0;labelBackgroundColor=none;fillColor=#23A2D9;fontSize=12;fontColor=#ffffff;align=center;strokeColor=#0E7DAD;metaEdit=1;points=[[0.5,0,0],[1,0.25,0],[1,0.5,0],[1,0.75,0],[0.5,1,0],[0,0.75,0],[0,0.5,0],[0,0.25,0]];resizable=0;" parent="1" vertex="1">
            <mxGeometry x="780" y="4870" width="240" height="120" as="geometry" />
          </mxCell>
        </object>
        <object placeholders="1" c4Name="UserConfigService" c4Type="Component" c4Technology="Spring Service" c4Description="Сервис обрабатывающий поступающие настройки пользователя" label="&lt;font style=&quot;font-size: 16px&quot;&gt;&lt;b&gt;%c4Name%&lt;/b&gt;&lt;/font&gt;&lt;div&gt;[%c4Type%: %c4Technology%]&lt;/div&gt;&lt;br&gt;&lt;div&gt;&lt;font style=&quot;font-size: 11px&quot;&gt;%c4Description%&lt;/font&gt;&lt;/div&gt;" id="D4GbOzt9CynH11Gv_l5v-38">
          <mxCell style="rounded=1;whiteSpace=wrap;html=1;labelBackgroundColor=none;fillColor=#63BEF2;fontColor=#ffffff;align=center;arcSize=6;strokeColor=#2086C9;metaEdit=1;resizable=0;points=[[0.25,0,0],[0.5,0,0],[0.75,0,0],[1,0.25,0],[1,0.5,0],[1,0.75,0],[0.75,1,0],[0.5,1,0],[0.25,1,0],[0,0.75,0],[0,0.5,0],[0,0.25,0]];" parent="1" vertex="1">
            <mxGeometry x="770" y="4540" width="240" height="120" as="geometry" />
          </mxCell>
        </object>
        <object placeholders="1" c4Name="UserConfigRepository" c4Type="Component" c4Technology="Spring Repository" c4Description="Repository сохраняющий модели пользовательских настроек в бд" label="&lt;font style=&quot;font-size: 16px&quot;&gt;&lt;b&gt;%c4Name%&lt;/b&gt;&lt;/font&gt;&lt;div&gt;[%c4Type%: %c4Technology%]&lt;/div&gt;&lt;br&gt;&lt;div&gt;&lt;font style=&quot;font-size: 11px&quot;&gt;%c4Description%&lt;/font&gt;&lt;/div&gt;" id="D4GbOzt9CynH11Gv_l5v-39">
          <mxCell style="rounded=1;whiteSpace=wrap;html=1;labelBackgroundColor=none;fillColor=#63BEF2;fontColor=#ffffff;align=center;arcSize=6;strokeColor=#2086C9;metaEdit=1;resizable=0;points=[[0.25,0,0],[0.5,0,0],[0.75,0,0],[1,0.25,0],[1,0.5,0],[1,0.75,0],[0.75,1,0],[0.5,1,0],[0.25,1,0],[0,0.75,0],[0,0.5,0],[0,0.25,0]];" parent="1" vertex="1">
            <mxGeometry x="770" y="4710" width="240" height="120" as="geometry" />
          </mxCell>
        </object>
        <object placeholders="1" c4Name="SystemSettingsController" c4Type="Component" c4Technology="Spring Service" c4Description="Контроллер принимающий конфиги от пользователей" label="&lt;font style=&quot;font-size: 16px&quot;&gt;&lt;b&gt;%c4Name%&lt;/b&gt;&lt;/font&gt;&lt;div&gt;[%c4Type%: %c4Technology%]&lt;/div&gt;&lt;br&gt;&lt;div&gt;&lt;font style=&quot;font-size: 11px&quot;&gt;%c4Description%&lt;/font&gt;&lt;/div&gt;" id="D4GbOzt9CynH11Gv_l5v-40">
          <mxCell style="rounded=1;whiteSpace=wrap;html=1;labelBackgroundColor=none;fillColor=#63BEF2;fontColor=#ffffff;align=center;arcSize=6;strokeColor=#2086C9;metaEdit=1;resizable=0;points=[[0.25,0,0],[0.5,0,0],[0.75,0,0],[1,0.25,0],[1,0.5,0],[1,0.75,0],[0.75,1,0],[0.5,1,0],[0.25,1,0],[0,0.75,0],[0,0.5,0],[0,0.25,0]];" parent="1" vertex="1">
            <mxGeometry x="1520" y="4509" width="240" height="120" as="geometry" />
          </mxCell>
        </object>
        <object placeholders="1" c4Name="UserMonitorController" c4Type="Component" c4Technology="Spring mvc" c4Description="Возможность пользователем настривать настройки приборов" label="&lt;font style=&quot;font-size: 16px&quot;&gt;&lt;b&gt;%c4Name%&lt;/b&gt;&lt;/font&gt;&lt;div&gt;[%c4Type%: %c4Technology%]&lt;/div&gt;&lt;br&gt;&lt;div&gt;&lt;font style=&quot;font-size: 11px&quot;&gt;%c4Description%&lt;/font&gt;&lt;/div&gt;" id="D4GbOzt9CynH11Gv_l5v-60">
          <mxCell style="rounded=1;whiteSpace=wrap;html=1;labelBackgroundColor=none;fillColor=#63BEF2;fontColor=#ffffff;align=center;arcSize=6;strokeColor=#2086C9;metaEdit=1;resizable=0;points=[[0.25,0,0],[0.5,0,0],[0.75,0,0],[1,0.25,0],[1,0.5,0],[1,0.75,0],[0.75,1,0],[0.5,1,0],[0.25,1,0],[0,0.75,0],[0,0.5,0],[0,0.25,0]];" parent="1" vertex="1">
            <mxGeometry x="2240" y="4329" width="240" height="120" as="geometry" />
          </mxCell>
        </object>
        <mxCell id="D4GbOzt9CynH11Gv_l5v-62" style="edgeStyle=orthogonalEdgeStyle;rounded=0;orthogonalLoop=1;jettySize=auto;html=1;exitX=0.5;exitY=1;exitDx=0;exitDy=0;exitPerimeter=0;entryX=0.5;entryY=0;entryDx=0;entryDy=0;entryPerimeter=0;" parent="1" source="D4GbOzt9CynH11Gv_l5v-38" target="D4GbOzt9CynH11Gv_l5v-39" edge="1">
          <mxGeometry relative="1" as="geometry" />
        </mxCell>
        <object placeholders="1" c4Name="UserMonitorService" c4Type="Component" c4Technology="Spring Service" c4Description="Сервис получающий текущие настройки квартиры" label="&lt;font style=&quot;font-size: 16px&quot;&gt;&lt;b&gt;%c4Name%&lt;/b&gt;&lt;/font&gt;&lt;div&gt;[%c4Type%: %c4Technology%]&lt;/div&gt;&lt;br&gt;&lt;div&gt;&lt;font style=&quot;font-size: 11px&quot;&gt;%c4Description%&lt;/font&gt;&lt;/div&gt;" id="D4GbOzt9CynH11Gv_l5v-63">
          <mxCell style="rounded=1;whiteSpace=wrap;html=1;labelBackgroundColor=none;fillColor=#63BEF2;fontColor=#ffffff;align=center;arcSize=6;strokeColor=#2086C9;metaEdit=1;resizable=0;points=[[0.25,0,0],[0.5,0,0],[0.75,0,0],[1,0.25,0],[1,0.5,0],[1,0.75,0],[0.75,1,0],[0.5,1,0],[0.25,1,0],[0,0.75,0],[0,0.5,0],[0,0.25,0]];" parent="1" vertex="1">
            <mxGeometry x="2240" y="4519" width="240" height="120" as="geometry" />
          </mxCell>
        </object>
        <object placeholders="1" c4Name="MonitorRepository" c4Type="Component" c4Technology="Spring Repository" c4Description="Repository сохраняющий модели текущих показателей в доме в бд" label="&lt;font style=&quot;font-size: 16px&quot;&gt;&lt;b&gt;%c4Name%&lt;/b&gt;&lt;/font&gt;&lt;div&gt;[%c4Type%: %c4Technology%]&lt;/div&gt;&lt;br&gt;&lt;div&gt;&lt;font style=&quot;font-size: 11px&quot;&gt;%c4Description%&lt;/font&gt;&lt;/div&gt;" id="D4GbOzt9CynH11Gv_l5v-64">
          <mxCell style="rounded=1;whiteSpace=wrap;html=1;labelBackgroundColor=none;fillColor=#63BEF2;fontColor=#ffffff;align=center;arcSize=6;strokeColor=#2086C9;metaEdit=1;resizable=0;points=[[0.25,0,0],[0.5,0,0],[0.75,0,0],[1,0.25,0],[1,0.5,0],[1,0.75,0],[0.75,1,0],[0.5,1,0],[0.25,1,0],[0,0.75,0],[0,0.5,0],[0,0.25,0]];" parent="1" vertex="1">
            <mxGeometry x="2240" y="4719" width="240" height="120" as="geometry" />
          </mxCell>
        </object>
        <mxCell id="D4GbOzt9CynH11Gv_l5v-67" style="edgeStyle=orthogonalEdgeStyle;rounded=0;orthogonalLoop=1;jettySize=auto;html=1;exitX=0.5;exitY=1;exitDx=0;exitDy=0;exitPerimeter=0;entryX=0.5;entryY=0;entryDx=0;entryDy=0;entryPerimeter=0;" parent="1" source="D4GbOzt9CynH11Gv_l5v-60" target="D4GbOzt9CynH11Gv_l5v-63" edge="1">
          <mxGeometry relative="1" as="geometry" />
        </mxCell>
        <mxCell id="D4GbOzt9CynH11Gv_l5v-68" style="edgeStyle=orthogonalEdgeStyle;rounded=0;orthogonalLoop=1;jettySize=auto;html=1;exitX=0.5;exitY=1;exitDx=0;exitDy=0;exitPerimeter=0;entryX=0.5;entryY=0;entryDx=0;entryDy=0;entryPerimeter=0;" parent="1" source="D4GbOzt9CynH11Gv_l5v-63" target="D4GbOzt9CynH11Gv_l5v-64" edge="1">
          <mxGeometry relative="1" as="geometry" />
        </mxCell>
        <object placeholders="1" c4Name="Temperature monitor database" c4Type="Container" c4Technology="Postgres" c4Description="Хранит текущие показатели температур в доме" label="&lt;font style=&quot;font-size: 16px&quot;&gt;&lt;b&gt;%c4Name%&lt;/b&gt;&lt;/font&gt;&lt;div&gt;[%c4Type%:&amp;nbsp;%c4Technology%]&lt;/div&gt;&lt;br&gt;&lt;div&gt;&lt;font style=&quot;font-size: 11px&quot;&gt;&lt;font color=&quot;#E6E6E6&quot;&gt;%c4Description%&lt;/font&gt;&lt;/div&gt;" id="D4GbOzt9CynH11Gv_l5v-69">
          <mxCell style="shape=cylinder3;size=15;whiteSpace=wrap;html=1;boundedLbl=1;rounded=0;labelBackgroundColor=none;fillColor=#23A2D9;fontSize=12;fontColor=#ffffff;align=center;strokeColor=#0E7DAD;metaEdit=1;points=[[0.5,0,0],[1,0.25,0],[1,0.5,0],[1,0.75,0],[0.5,1,0],[0,0.75,0],[0,0.5,0],[0,0.25,0]];resizable=0;" parent="1" vertex="1">
            <mxGeometry x="2240" y="4919" width="240" height="120" as="geometry" />
          </mxCell>
        </object>
        <mxCell id="D4GbOzt9CynH11Gv_l5v-71" style="edgeStyle=orthogonalEdgeStyle;rounded=0;orthogonalLoop=1;jettySize=auto;html=1;exitX=0.25;exitY=1;exitDx=0;exitDy=0;exitPerimeter=0;entryX=0.252;entryY=0.083;entryDx=0;entryDy=0;entryPerimeter=0;" parent="1" source="D4GbOzt9CynH11Gv_l5v-64" target="D4GbOzt9CynH11Gv_l5v-69" edge="1">
          <mxGeometry relative="1" as="geometry" />
        </mxCell>
        <mxCell id="D4GbOzt9CynH11Gv_l5v-72" style="edgeStyle=orthogonalEdgeStyle;rounded=0;orthogonalLoop=1;jettySize=auto;html=1;entryX=0.75;entryY=1;entryDx=0;entryDy=0;entryPerimeter=0;" parent="1" source="D4GbOzt9CynH11Gv_l5v-69" target="D4GbOzt9CynH11Gv_l5v-64" edge="1">
          <mxGeometry relative="1" as="geometry">
            <Array as="points">
              <mxPoint x="2420" y="4909" />
              <mxPoint x="2420" y="4909" />
            </Array>
          </mxGeometry>
        </mxCell>
        <object placeholders="1" c4Name="SystemMonitoringService" c4Type="Component" c4Technology="Spring Service" c4Description="Сервис обрабатывающий показатели приборов" label="&lt;font style=&quot;font-size: 16px&quot;&gt;&lt;b&gt;%c4Name%&lt;/b&gt;&lt;/font&gt;&lt;div&gt;[%c4Type%: %c4Technology%]&lt;/div&gt;&lt;br&gt;&lt;div&gt;&lt;font style=&quot;font-size: 11px&quot;&gt;%c4Description%&lt;/font&gt;&lt;/div&gt;" id="D4GbOzt9CynH11Gv_l5v-73">
          <mxCell style="rounded=1;whiteSpace=wrap;html=1;labelBackgroundColor=none;fillColor=#63BEF2;fontColor=#ffffff;align=center;arcSize=6;strokeColor=#2086C9;metaEdit=1;resizable=0;points=[[0.25,0,0],[0.5,0,0],[0.75,0,0],[1,0.25,0],[1,0.5,0],[1,0.75,0],[0.75,1,0],[0.5,1,0],[0.25,1,0],[0,0.75,0],[0,0.5,0],[0,0.25,0]];" parent="1" vertex="1">
            <mxGeometry x="1900" y="4509" width="240" height="120" as="geometry" />
          </mxCell>
        </object>
        <object placeholders="1" c4Name="TemperatureMonitor" c4Type="SystemScopeBoundary" c4Application="Microservice" label="&lt;font style=&quot;font-size: 16px&quot;&gt;&lt;b&gt;&lt;div style=&quot;text-align: left&quot;&gt;%c4Name%&lt;/div&gt;&lt;/b&gt;&lt;/font&gt;&lt;div style=&quot;text-align: left&quot;&gt;[%c4Application%]&lt;/div&gt;" id="D4GbOzt9CynH11Gv_l5v-82">
          <mxCell style="rounded=1;fontSize=11;whiteSpace=wrap;html=1;dashed=1;arcSize=20;fillColor=none;strokeColor=#666666;fontColor=#333333;labelBackgroundColor=none;align=left;verticalAlign=bottom;labelBorderColor=none;spacingTop=0;spacing=10;dashPattern=8 4;metaEdit=1;rotatable=0;perimeter=rectanglePerimeter;noLabel=0;labelPadding=0;allowArrows=0;connectable=0;expand=0;recursiveResize=0;editable=1;pointerEvents=0;absoluteArcSize=1;points=[[0.25,0,0],[0.5,0,0],[0.75,0,0],[1,0.25,0],[1,0.5,0],[1,0.75,0],[0.75,1,0],[0.5,1,0],[0.25,1,0],[0,0.75,0],[0,0.5,0],[0,0.25,0]];" parent="1" vertex="1">
            <mxGeometry x="1340" y="4280" width="1245" height="780" as="geometry" />
          </mxCell>
        </object>
        <object placeholders="1" c4Name="Component diagram" c4Type="SystemScopeBoundary" c4Application="C4" label="&lt;font style=&quot;font-size: 16px&quot;&gt;&lt;b&gt;&lt;div style=&quot;text-align: left&quot;&gt;%c4Name%&lt;/div&gt;&lt;/b&gt;&lt;/font&gt;&lt;div style=&quot;text-align: left&quot;&gt;[%c4Application%]&lt;/div&gt;" id="D4GbOzt9CynH11Gv_l5v-84">
          <mxCell style="rounded=1;fontSize=11;whiteSpace=wrap;html=1;dashed=1;arcSize=20;fillColor=none;strokeColor=#666666;fontColor=#333333;labelBackgroundColor=none;align=left;verticalAlign=bottom;labelBorderColor=none;spacingTop=0;spacing=10;dashPattern=8 4;metaEdit=1;rotatable=0;perimeter=rectanglePerimeter;noLabel=0;labelPadding=0;allowArrows=0;connectable=0;expand=0;recursiveResize=0;editable=1;pointerEvents=0;absoluteArcSize=1;points=[[0.25,0,0],[0.5,0,0],[0.75,0,0],[1,0.25,0],[1,0.5,0],[1,0.75,0],[0.75,1,0],[0.5,1,0],[0.25,1,0],[0,0.75,0],[0,0.5,0],[0,0.25,0]];" parent="1" vertex="1">
            <mxGeometry x="520" y="4299" width="2180" height="881" as="geometry" />
          </mxCell>
        </object>
        <object placeholders="1" c4Name="TemperatureManager" c4Type="SystemScopeBoundary" c4Application="Microservice" label="&lt;font style=&quot;font-size: 16px&quot;&gt;&lt;b&gt;&lt;div style=&quot;text-align: left&quot;&gt;%c4Name%&lt;/div&gt;&lt;/b&gt;&lt;/font&gt;&lt;div style=&quot;text-align: left&quot;&gt;[%c4Application%]&lt;/div&gt;" id="D4GbOzt9CynH11Gv_l5v-86">
          <mxCell style="rounded=1;fontSize=11;whiteSpace=wrap;html=1;dashed=1;arcSize=20;fillColor=none;strokeColor=#666666;fontColor=#333333;labelBackgroundColor=none;align=left;verticalAlign=bottom;labelBorderColor=none;spacingTop=0;spacing=10;dashPattern=8 4;metaEdit=1;rotatable=0;perimeter=rectanglePerimeter;noLabel=0;labelPadding=0;allowArrows=0;connectable=0;expand=0;recursiveResize=0;editable=1;pointerEvents=0;absoluteArcSize=1;points=[[0.25,0,0],[0.5,0,0],[0.75,0,0],[1,0.25,0],[1,0.5,0],[1,0.75,0],[0.75,1,0],[0.5,1,0],[0.25,1,0],[0,0.75,0],[0,0.5,0],[0,0.25,0]];" parent="1" vertex="1">
            <mxGeometry x="670" y="4370" width="480" height="710" as="geometry" />
          </mxCell>
        </object>
        <mxCell id="D4GbOzt9CynH11Gv_l5v-134" value="&lt;h1&gt;&lt;font style=&quot;font-size: 36px;&quot;&gt;Подзадание 1.3: ER&lt;/font&gt;&lt;/h1&gt;" style="text;html=1;align=center;verticalAlign=middle;whiteSpace=wrap;rounded=0;" parent="1" vertex="1">
          <mxGeometry x="1340" y="5720" width="650" height="90" as="geometry" />
        </mxCell>
        <mxCell id="D4GbOzt9CynH11Gv_l5v-135" value="" style="shape=image;verticalLabelPosition=bottom;labelBackgroundColor=default;verticalAlign=top;aspect=fixed;imageAspect=0;image=data:image/png,iVBORw0KGgoAAAANSUhEUgAAAXUAAAH6CAIAAAB3eUuSAAAAKnRFWHRjb3B5bGVmdABHZW5lcmF0ZWQgYnkgaHR0cHM6Ly9wbGFudHVtbC5jb212zsofAAABrGlUWHRwbGFudHVtbAABAAAAeJztUttKw0AQfd+vGPKiRVJMESuhSNGq0AuWXnwtazJNF5LdsLuplNZ/dzbRXpCKvon4ErJzZs85c3baxnJtiyxlKK2wK/CmBrXxgBso3B+sGcCZiEMQ0kKrNexdX1PF9+kjeYYhGKuFTNgr21KM0VoqVSzm/fAVkVOa7aD7CtJKZZ+r73yzA3EAGiNBO8EsR81toQmbp4pbgoR5lCE8K5Uil/s+RyRQenRKP/cX41JEeMT3sWw65aUqmorg+xE7SRNpkVuh5F6V3Ame7qudwAhT7trMQuSGVU+52fi+Wu9eJAQvUnIuEorLeIdNZSTUoF4kQeWpRDZb1wTSjQPwkHtBI2ZFakWeosfaKGO3Z6z9v3J/ceV+04oNUy7tdNCHJcmRcQjqjfPGRb15OuYWxpjDeROCIAyuwqAJ08ktOLjGTh+GfTCq0BFCLNxsz4UbvMa6fMlhVFCiLpzHHGW30/sowJ1cCq1kRomz7tNg13B54d8Ip6jJCTwNWAfnnPzSjUjFNEVI6vf+FetzmRQ8IW6U7FYRr14RNmZvtdzJatzhVXEAAGmOSURBVHhe7J0HWBTH28CVIEbQqDEqolKMEpWqcIIUKYKiWEBRUTEWYouixgYmscX2t6KoMXasoSio0agRFRvGBiGiKPaCWBDYxBRL5Htz87lZ5m6P5TiOvdv39/Dw7L0zO3dwO7+b2dt9p0oxgiBIxVCFDiAIgmgI9AuCIBUF+gVBkIoC/YIgSEWBfkEQpKJAvyAIUlFIxS+pqalz586dh5SRkydP0v9KBBGMJPySlJSUkJDAIGUnMTExPj6e/ociiDAk4ZdFixbR/QYRzIIFC+h/KIIIA/2ClMLixYvpfyiCCAP9gpQC+gVRG/RLmXleWJCwf9fw8SPae7m1tG1lamrayraVu49HxKRxh346VFRURO+g46BfELVBv5QBcMeW3dtkHu2c3WSfRY5cmrBi49EtuzP3wW/Yhoizu8y9g/uBHw/Qe+oy6BdEbdAvQnmS/3To2GF2TvbTv50NTuH7gVIHJ8dJUyYVFBTQTegm6BdEbdAvgnia/zQguEvH7n47zsYrOoX6gTp+3f379uurH4pBvyBqg34pnSKmaOjYcJBLYsYeRZso/YGa/j06T5k6hW5LB0G/IGqDfimdbbu3w7Roe1qJkUsVHtgKUL+tc9uDBw/Szb3jwoULWVlZ3Mjdu3dTU1PFdoYY/YKoDfqlFAoKC9p5uiiec6G98g5unZnffuPj48PnC2dn508//ZQbWbduHbTw5MkTbrDSQb8gaoN+KYXdPyY7u8souXD9oljE/XHv4J6SkkI3Kgf9gug96JdSGDFh1PDIkYriEOiXiK/GT5s2jW5Ujmq/nD17tk+fPvb29jKZLCwsLCcnh9RJSEjo3LmznZ1dUFDQyZMn2X2nT5++YcOGpUuXuri4DBo0iG93NUC/IGqDfikFNy+3pfErFMUh0C/LE1b5+fnRjcpR4ZenT5/Wr18/PDx8//79iYmJU6dOTU9PhwqrV682MTGZPXv2vn37oqKiatSokZaWRvb18vIyMzMLDAyMjY3duXOn0t3VA/2CqA36pRRa2bbaeGyrojhYv3BRrAb7wiCCblSOCr9kZGTARnZ2Nrf0+fPnH330EfdvGThwYEhICNkGv7Rs2ZKc61G6u9qgXxC1Qb+UQpOmTRIuJSuKgzILQbEa7Gtubk43KkeFX0AlrVu3hh3Hjx+/d+/e/Px8Rj5jgtJhw4bByCUyMhJGJb6+vjY2NmRf8AsMWMi20t3VBv2CqA36pRRa2bZWPX5RLOL+bDm+w8HBgW5Ujre3d69evbiRpUuXGhkZFRYWwvajR4+WL1/erVu3WrVqWVpaZmZmHjt2DJ4OlDGLw7Jly8i+4JcJEyawTSnuzhaVFfQLojbol1Lw8PYoz/mXtUkb+M6/DB06tFWrVtzI8OHDra2tuRFGbgoIglbu3r1rYGCwbds2qgKB8gsLuztdIBj0C6I26JdSmDDli/J8fxQ5K4rv+6PU1NSqVavOnj376dOnMGZJSkoyMTGZP38+FGVlZcFDMpABrVhZWUE12A4NDYXBCHtO9/z58zD9Idtcv/Dtrh7oF0Rt0C+lcCTliMy9naI4WL9QcOsk/7rfy9uL7/oXIDo6uk6dOjAqqV69erVq1cLDw8m5EjBIgwYNYK7UuHFjKIJpzuPHjyGel5cXFhZmaGhYt25dY2Nj+A2TINIU1y98u6sH+gVRG/RLKRQVFXl6e6p3/W7M5lW+vr581+8Snj9/fuHCBTACuIMqys7OhjgMQKh4bm4uxGGQovr+Sb7dywr6BVEb9Evp/HjwR0fnNtT9R6X/nN/bzqWdivuPdAX0C6I26BdBTJk6pVOPzsLvn96Tub93n96RkZF0QzoI+gVRG/SLIGAm0i80tHPPLkLyvyRf+AHk0r9/f9XzF10B/YKoDfpFKCCLqVOnOsmcZn83V9Ep/2+WX/evil3t4uICIxf9kAuDfkHKAfqlbBw8eNDHx8ejg8eEryd+m7R2y/Ed4JQdJ+I37YudNvtLL28vKNWDcy5c0C+I2qBfykxRUVFKSsq0adP8/f0dHBxMTU3hN2xDBOKqvy3SRdAviNqgX5BSQL8gaoN+QUoB/YKoDfoFKQX0C6I26BekFNAviNpIxS+bN2+eh5Sd2NhY9AuiNlLxC/2hjAgG/YKoDfoFKQX0C6I26BekFNAviNqgX5BSQL8gaoN+QUoB/YKoDfpFEAsWLPjuu+/oqJxly5atXLmSjiqgooXyc/ny5VQ5Z86cuXfvHjd+8eJFTsV/F70+efJkmW5iQL8gaoN+EUTv3r3Hjh1LR+X07duXWmZEKSpaYPnss8/US5Q7YMAAQ0PDDz/8sFatWlWqVPH29iYLNkLcw8ODrQamqFat2po1a/7bUwDoF0Rt0C/lRaBfhNC5c+fRo0fTUQFwPXLu3DlTU9OgoCAqPmPGjOrVq2/fvp3dSyDoF0Rt0C+CmDt37urVq8k2TC7gYdu2bdu3bw9THtYvt27dOnTo0PPnz0vs+Q5uC9OnT9+4ceOKFSvatWvn7u5O4jDPatSoUfPmzXvJuXbtWon9OTx9+pTaoMYp48aNa9iwITc+YcIEY2PjPXv2sHUYZe0oBf2CqI3U/ZL4y3HnNWM+mBcEv2GbLn5HYGDg8OHDyTZMYWrWrAk6SEhIgN4LPZn4hay+ePv27RJ7voPbgpeXV+PGjWHG9P3338+cOdPAwGDfvn2pqamOjo4whNkqJzc3t2QD/wJqA1MkJSXBBox0Dhw4QOKUX8LCwpo1a0bibm5uQ4cOrV279k8//cRWIAwePPjo0aOk2smTJ6lSFvQLojaS9gsIxWJp2P6stEf5T+A3bPMphrVDfn5+nTp1lixZQuIPHz784IMPiF/S0tKioqL4VgKh/AIqYU+yduzYkRSpnh/BU/fr1w/2BYUFBwf7+fmxSw6AIOzs7GD0BMaBeZChoSFJ/QvxqlWrgvVAZCXakgOVYSYVFxeXnJwMG6AtuoYc9AuiNpL2C4xZ9l0+zT6EbYhwyv+DtUN6ejp0V+6XMr6+vkLOv1B+4XokPDy8e/fuTGl+gVLQyrNnz2D30NBQ7kQMPGJkZGRmZmZubg6ztoULF5JSiDs4OMAsDOJXrlz5r613gBNhr+3bt8P4BRQTHx9P10C/IOVA0n6pPS8oN/8J+xC2IcIp/w/WDmfOnAG/XL16lS0CNajhF+5arhCHUqY0v8AuMEjJyckZNWpUmzZtbt26xRZR8yMqDoMsmUxmYWGhqJgtW7aAVmCWBJO7Ro0aKZ0loV8QtZG0X9QYv0BfhRnH7t272aLmzZtryi/we+TIkWxckfnz51taWmZnZ8+aNQuel3wJzZTmF0b+skExsC/XjDExMSCdCxcuwHSvWbNmGRkZ/+3JAf2CqI2k/aLG+RcgKCjIycmJXMYGMxEDAwPil3379oE4oCdzd2QR4hcYmLi4uNy4cePRo0d8l8Bt3rx5//79sLF27Vr2lG2pfmHkinF2draysgI9kci0adOuX78OG1OmTLl58ya7FwX6BVEbSfuFUev7o2vXrsE8pVq1anXq1AFTsPOjMn1/pNQvmZmZrq6uNWrUgHZgWMFWKBUhfgEePHhAKUYI6BdEbaTuF/WAwcXFixd//fVXukAfQb8gaoN+QUoB/YKoDfoFKQX0C6I26BekFNAviNqgX5BSQL8gaoN+QUoB/YKoDfoFKQX0C6I2UvGLKaIu6BdEbaTiF/pDGREM+gVRG/QLUgroF0Rt0C9IKaBfELVBvyClgH5B1Ab9gpQC+gVRG/SLPlChiyuhXxC1Qb/oAKWuiyRkcSW1Qb8gaoN+0QFU582saNAviNpI2i9K1yEiHDp0aMCAAU5OTi4uLhEREffv3+fusnTpUplM1r59+/j4+KKiIpieQE1vb2+SWY4lISEB1GBnZxcUFMSmtlW9TNLZs2f79Oljb28P7YeFheXk5CiuiwSvYcOGDfAa4LUNGjSIEbC4EqGwsBDGQW3atCErNy1ZsgSqsaV8oF8QtZG0X5SuQ0SK5s+fD512z549O3fudHV1dXNzY3cxMzMD9cTFxY0ZM8bQ0BB6+ODBg+FheHi4sbExm3YbOraJiQn0Z2gzKiqqRo0aaWlpjMo0d0+fPq1fvz60A55KTEycOnVqenq64rpI5DUEBgbGxsZCNUYhOR7fHwUvo3bt2uCUXbt2+fn5sSs3qQb9gqiN1P2idB0iCnABm7ASdoGhConDjtDPYYxAHhYUFNStW3fTpk2wDcOTjz76iPu8AwcODAkJYVQuk5SRkQFPpJi8kpofwWto2bIlN0Ev5RelfxTIq2bNmjExMSQOL6BevXroF6RCkbpflK5DxMhnMRMnTvT09LSxsWnVqlXVqlXhM19xF5iDcDPpQmUY+DDyaQ6YYtiwYaCSyMhIGIn4+vpCKVtTKWCl1q1bm5ubjx8/fu/evfn5+SSu6Bd4qexDRsEvSv8o8CO8JBgQsUX+/v7oF6RCkbpflObZBtq2bdupU6fk5GQYbpw/f75atWo7duxQ3AWmTmAQ9qGtre2cOXNg49ixY9CZQROzOCxbtoytycejR4+WL1/erVu3WrVqWVpaZmZmMsr8wn0NjIJflP5R8IfAS7p8+TJb1LVrV/QLUqGgX5R0xZycHOiKly5dInHYgIdl8svdu3cNDAy2bdvGFpUVEI21tTUYilFYF0k9v+Tl5RkaGm7dupXEYTbXpEkT9AtSoaBflHTFx48fw4AlOjqakS8bBFMbmB+VyS9AaGgoDEDIOV0ABkEw5WFULpOUlZWVlJRUWFjIyA1lZWVFLnuh1kVSzy/AkCFDoM0jR45cvXoV2jQ2Nka/IBUK+kV5V4ROZWRk1LBhQxMTk3nz5kFXLKtfYLwQFhYGQ4a6devC7vAbJj6Myu+PQEYNGjSA523cuHH16tVhlkROA1PrIqntF9BT//794S+CFwN1oP2IiAi2Jh/oF0RtJO0X1Tx48ODs2bNKBxrCyc3NBWvAwATmI3QZD9nZ2bALjF/oAo0Cr8fCwoKM0VSDfkHUBv0iIU6dOrVy5UqQ5tGjR/v27VuvXj1wKF1JAfQLojboFwlx7tw5X19fS0vLFi1a9OrVi29Bewr0C6I26BekFNAviNqgX5BSQL8gaiMJv5BrahH1WLJkCf0PRRBhSMIv8fHx5Op+KfPkyRM6JICkpKTk5GT6H4ogwpCEX4CTJ08ukDBz5syxtraeOHEiFeQ+pPifnFOnTtH/SgQRjFT8IipMTU3pUMVz4MABJycnGMWQh9u2bXN2dv7zzz9L1kIQTYJ+qQQqxS/A8uXLu3bt+vjx4yFDhvj7+9+8eRP9glQo6Bct8ebNG3a7svwChISEWFlZffPNN69evdq/f79MJkPFIBUH+kUbgFygV8P0JCgoKCIiAvzy/fffnz59+t69e69fv6ZrVwwglNmzZzs6Onp6esJAJjo6Gl7P5cuX6XoIojnQL1oCPHL//v0zZ87ExcWBX8aNGxccHOzs7Aze4Q5tKogbN274+fkNHTq0oKDgwYMH8KTt27dnz8UgSAWBftESfPMjLcgFZkAgsm3btsE2OKVLly79+vVr0qTJ+fPn6aoIolHQL9qg0udH5CQLzIbgNcDkCLb37dvXpk2bhw8f0lURRHOgX7RE5c6PiuWKkclkBw4cYCPr1q3z8fH57bffOLUQRJOgX7QNiAb8wjpFO3IhKH5V9OWXX8JcSTtjKESCoF+0TW5uLkxM6GglAXYLCwubPHkyXYAgmgD9om0uXLgQGBhIRyuPFy9e+Pn5rVq1ii5AkHKDftE2+/bt++yzz+hopZKXl+fk5PTDDz/QBQhSPtAv2mbt2rXTp0+no5VNVlaWra3tpUuX6AIEKQfoF20zc+bMNWvW0FERcPToUQcHh3v37tEFCKIu6BdtM2LEiD179tBRcbB582ZPT0+GYegCBFEL9Iu26d69u5gvnJ0xY0ZISMirV6/oAgQpO+gXbePk5PTgwQM6Khr++eefIUOGTJgwgS5AkLKDftEqb968MTc3F/no4M8//+zcuTO5jQBBygP6Ravk5eU5OjrSUfHx5MkTmUyGmXeRcoJ+0SqXLl3q0qULHRUl2dnZtra2Yj5VhIgf9ItW2b9//7Bhw+ioWElNTbW3t79z5w5dgCDCQL9olXXr1n399dd0VMRs27bN3d29sLCQLkAQAaBftMrs2bNXr15NR8XNN998ExwcLPJz0og4Qb9olVGjRiUlJdFRcfPPP/+Eh4ePHTuWLkCQ0kC/aJUePXr8/PPPdFT0/PXXX127dl26dCldgCAqQb9oFZlMpqM3+Dx79qxdu3a7d++mCxCEH/SL9oCJhvgvrlPB9evX7ezsdHH8hVQW6Bft8fjxY3t7ezqqU5w8eRL+hFu3btEFCKIM9Iv2yMjI6Ny5Mx3VNXbu3Onm5lZQUEAXIIgC6Bft8eOPPw4ZMoSO6iDz5s3r2bPny5cv6QIEKQn6RXts2LDhyy+/pKM6yNu3b0eMGPH555/TBQhSEvSL9pgzZ87KlSvpqG7y999/d+vWbdGiRXQBgnBAv2gP+MDXp+938/PzXVxcEhMT6QIEeQf6RXsEBQWlpaXRUV3mxo0bdnZ2evZHIRoE/aI92rVrd/fuXTqq45w+fRoUg99YI0pBv2iJt2/fWlhY6OV3LnFxca6urs+fP6cLSgJ/e0ZGxi+//MJeYfj7778/e/aMbP/xxx9s2tB//vkHtuF3sTzTFRQVFRWdOHGCuvQ5Jyfn2LFj6enpunvJot6DftEST58+tbW1paP6woIFC7p37/7333/TBe+4cOGCubm5g4ODjY3Nxx9//OuvvxbLs+GAc0mFqVOnVqlS5erVq8Xyq/jq1atH/AK7DB8+HHZxcXF5//33yTqTUNS7d28zMzN/f39HR8dOnTqxT4SICvSLloAe5efnR0f1BRidjZIDG3SZPOtwq1atwCDkIVRr27Yt1Pztt98MDQ1v3rxZLE97DvMs8v3azJkzQ0JCSGXwCxgEasL2rl27atWqBXLJzMw0MTGBcQ2pgwuqiBb0i5Y4dOjQp59+Skf1CBi8wBAGBjJ0QXHxtWvXYGwCIzjy8NatW/Dw/v37sO3m5rZ27dqCgoI6deps3769Z8+eEPTw8GCXoAO/rFixgmwXFhbCjg8fPoTZk5GR0fz582GKRIoQcYJ+0RKxsbHsB7i+8vz5c1dX17i4OCqempoK4xT24V9//QWaOHfuHGxPnz69b9++u3fv7tatGwgILFNUVFStWjVWHOCXbdu2cXe8ceMGbB8+fDggIMDY2LhZs2bx8fHv2kbEBfpFS8AHe3R0NB3VO2BsYm9vf/r0aW4QZkDghdzcXPIwOzubfQjq+eijj2DGRJZDAZvMmDGjadOm7L58fiG8fPkyJiYGfEQmUIjYQL9oifHjx3///fd0VB9JS0uzs7Pjzlzevn3r5OQ0cuRI2Hjz5k2/fv08PT1JEQgCxiA1a9a8fPkyPJw4cSJsc+/SUuqXu3fvXr9+nQTPnDnz3nvv/f777+wuiHhAv2gJmAXAZzUd1VMSExNdXFzy8/PZyNWrV2Fc06BBg3r16oFryDldQqdOnRo2bEi2Dxw4AAbZunUrW6rUL+CUunXrNmnSxMbGBjbYkzWI2EC/aAn4xGY/cqXA4sWLAwMDqW+sHz16lJeXx42oDYyD7ty5A/9SkA5dhogG9IuWaNGihdS+Rh0zZszw4cOVfmONSAT0izb4/fffP/74Yzqq77x8+TIoKGju3Ll0ASIZ0C/a4MaNG+7u7nRUAhQWFrq5uW3fvp0uQKQB+kUbnDp1qnfv3nRUGty+fdve3v7EiRN0ASIB0C/aYNeuXVLO9nbu3Dk7O7tr167RBYi+g37RBqtWrfrmm2/oqJRISkqSyWRPnjyhCxC9Bv2iDaZPn75u3To6KjGio6MDAgL+/PNPugDRX9Av2mD48OF79+6lo9Jj/PjxQ4cOJYkXECmAftEG3bt3J7fzSZxXr1717t175syZdAGip6BftIFeZsZUD4ZhPD09Y2Nj6QJEH0G/aAMLCwsVud2kxr179xwcHI4ePUoXIHoH+qXCKSgoaNmyJR2VNhcvXrS1tc3KyqILEP0C/VLhZGdne3l50VHJ88MPPzg5OWnqdkdEnKBfKpwTJ0706dOHjiLyy4L8/PxevHhBFyD6Avqlwtm1a9eYMWPoKCJn0qRJgwYNevPmDV2A6AXolwpn9erVs2fPpqOInNevX/fr1+/LL7+kCxC9AP1S4cycORMTrKngt99+8/Hxweub9RL0S4UzevRofVrWviJ4+PBhmzZtfvzxRxjr+fv7f/zxx/AbtnHepOugXyqc3r17nzp1io4iJcnIyLCwsBgwYMAvv/zy4sUL+D1o0KBevXqhYnQa9EuF4+npicuAlcqqVav69+9PBcPCwsiCsIiOgn6pcD755JOioiI6ipSkc+fOMGahghCBOBVEdAj0S8Xy999/s0u4Iypo3ry54hpGEIE4FUR0CPRLxfLgwQMnJyc6iiiA4xe9BP1SsWRkZAQEBNBRRIFVq1aFhYVRQTz/ouugXyqWn376SbHbIIq8efOmV69egwYNwu+P9An0S8Wyc+fOL774go4iygCVKF7/IrVF6fQM9EvFsmLFinnz5tFRRBggF1NTUy8vr6+//jo5OfnBgwd0DUTcoF8qFszsXU7AL3Z2dosWLRo2bJiDHNiAoc25c+cwZZf4Qb9ULJ9//jneHFAewC/Lly/v2rUrsQkMYWAgA8OZgICATz755NWrV/QOiJhAv1Qsffr0OXnyJB1FBAN+KZZrWnGBOpSL+EG/VCw+Pj5Xr16lo4hgiF9g8AJDGBjI0MWIuEG/VCy2trZPnz6lo4hgiF+AJ0+eODk5HThwoGQ5ImrQLxXImzdvmjZtildwEOLi4ubOnbuwjIBf2O3JkydbW1vPmzePU45onl27dtFvnrqgXyqQ/Px8GxsbOipJUlNTExISmLIDfuE+hFEM9yFSEcA7pamThuiXCuT69esdOnSgo5IEBh1FRUX0gSwAyi+IFoB3av78+fRbqBbolwokLS0tODiYjkoSOF7po1gY6JdKYcGCBfRbqBbolwrkhx9+CA8Pp6OSBP2iW6BfdIDY2NipU6fSUUmitl80Agz4U1JSpk2b1tGvo72D/b/XBNvb+Xb0jYyMhLh6Ezf9Bv2iAyxdunThwoV0VJJUol8OHjzo4+Pj1sH982ljlyas2Hh0y+7MffAbtodHjnTxcPX08vzx4I/0btIG/aIDfPXVVxs2bKCjkqRS/FJQUAAjFGeZ8zdr54NT+H6mfzvbwcnxi8kToT7dhFRBv+gAo0aNSk5OpqOSRPt+AVn079+/W3D3HWfjFZ1C/UCdjt39e/XtjYohoF90ALz5iEX7foGRS/dePRIz9ijaROkP1OzY3W/8pAl0Q5IE/aID+Pr6XrlyhY5KEi375eDBg7J2MmrkMjf2f6NnjlX82XkukVTYnhZv7+Swb/8+ujkFLl++nCrnzJkzt2/fpot1H/SLDuDg4PD48WM6Kkm06ZeioiIw+4L1i6gRSsdg/yrKWPfTJrbO9G9nu3VwL/UbpQEDBhgaGn744YcffPABtODq6pqVlUVX0mXQL2Ln7du3TZs2xRwCBG36JSUlxdPLk5IL6xej6kYtHVtxfzanbuNWc3aXHTx8kG60JOAXDw8Psp2RkWFubt65c+eSVXQb9IvYgc9Aa2trOipVtOmXadOmTZoxmc8vZpaNFYu4P8MjR0ZMGkc3WhKuX4AJEybUq1ePU86sXr0aKtja2oaGhoKASi2aPn36xo0bly5dKpPJ2rdvHx8fD8cPdHInJydvb+/9+/dzW9AC6Bexc+vWLTc3NzoqVbTpFz8/v1W71iiKQ6BflsavcPd2pxstCeWXnj17tmjRgn24cOHCGjVqQBfdvXt3165dQT13795VXeTl5WVmZgbNxsXFjRkzBiZfgwYNGjx4MDwMDw83NjaGw4ltXwugX8TO+fPnu3fvTkelijb94uDgsPn4dkVxEL/U/KBm4MDu7M/ERVOoahuPbW1l24putCQgAktLyzlz5syaNSsoKMjIyGjLli2k6Pnz53Xq1IEi9iFMk6dOnaq6CPwCQxUSh5ELuMbd/f8dV1BQULdu3U2bNpGH2gH9InYOHjw4ZMgQOipVtOmXpubmCZeS+fxCAUGqGuzbpGkTutGSgF8+/PDDwMDAjh071qxZE0Yi+fn5pAimPNDs2bNn2cowEgkICFBdBH4ZPXo0G2/Xrh3MudiHNjY22vwHMugX8bN9+/ZJkybRUamize5hb2+/6XiJU7Zcv5jUMukUEsD+jJ8/kaomcPzCzo+uXLkC05zJkyeTh2fOnIFnyczMZCuPGDHC09NTdRH4hSsUV1fXqKgo9qGtrS076tEO6Bexs2LFivkaSqKhB2jTL35+fjG7vuXzi5DzL25lPP+ydOnS999//9q1a7Cdm5tbtWrVnTt3sqUw0xk8eLDqIvQLUjZmzJixdu1aOipVtOmXadOmfTF9kqI4BPpleOTIzyeOoRstCeWXZ8+eNW7ceOTIkeRhSEgIGCEnJwe2169fD045duyY6iL0C1I2xowZk5iYSEelijb9kpKS4tHBQ1EcxC8NGjeM2fMt9ychvcTJGmd32f7DB+hGS0L5BYiOjq5evXp2djZs37x5E0oNDAxq165Nvi1iq/EVoV+QshEaGgofTXRUqmjTL+T63TkK90wrPb9bReH63fYd3Eq9flcI4Jq0tLTHjx/TBSqLRAL6Rez4+/tnZmbSUamiTb8w8vuPnGXO29NK3H9Uql/k9x/ZJ+1LppuTHugXsePk5PTw4UM6KlW07BdGfv901+DAst4/PXbiWLohSYJ+ETuWlpZ//fUXHZUq2vcLyf/SJair4Pwvfj1DgjD/CwH9Imr++OOPZs2a0VEJo32/MO/y17WVOc389htFp7A/07+dbe/kEDExAuXCgn4RNQ8ePHB2dqajEqZS/EI4ePCgt4+3q2f74ZGjqPy7n0WOlLnL3Dq4/3BA2zcQihz0i6jJzMz09/enoxKmEv3CvFs/IDIq0qejj629rampKfz28vX6YspEXD9AKegXUZOamtqvXz86KmEq1y9IWUG/iJrdu3d//vnndFTCoF90C/SLqFm/fv3XX39NRyUM+kW3QL+ImoULFy5btoyOShj0i26BfhE1kZGRsbGxdFTCgF82b948D9EF4NBFv4ia4cOH7927l45KGBy/6BboF1HTu3fvU6dO0VEJg37RLdAvogZXVqNAv+gW6BdR4+jomJeXR0clDPpFt0C/iBpzc3NcWY0L+kW3QL+Il99++61FixZ0VNqgX3QL9It4uXv3brt27eiotCmnX+Bw/+677+ionGXLlq1cuZKOKqCihfLDXe7+3r17VNHFixe5kQsXLpw8eVLkNz2hX8RLenp6QEAAHZU25fRL7969x45Vnvmpb9++n376KR1VQEULXD777LPZs2fT0dJgl7uvVatWlSpVvL29SQZvUsTN1Lt48eJq1aqtWbOGjYgT9It4OXr0KBxVdFTalNMvKhDoF4F07tyZu86ZQLgSOXfunKmpaVBQkGLRjBkzqlevvn37dvJQzKBfxEtiYiJ8VNJRaVNOv8ydO3f16tVkG2YW8LBt27bt27eHKQ/XL7du3Tp06NDz58//2/Md3BbIYvIrVqyAaay7uzsbh6lWo0aNmjdv3ksOWc9IKU+fPuVuUIOUcePGNWzYkGyzRRMmTDA2Nt6zZw9bjWpEVKBfxMvatWvhk4qOShsVfkn85bjzmjEfzAuC37BNF8sJDAwcPnw42Yb5S82aNcEFCQkJ0HWhJ7N+WbduHUxPbt++/d+e7+C24OXl1bhxY5gxff/99zNnzjQwMNi3bx/EU1NTHR0dYQizVU5ubm6JJuSA3cAUSUlJsAEjnQMH/l3JhPJLWFhYs2bNyDYUubm5DR06tHbt2j/99BNbBxg8eDAMdUmdkydPcosqHfSLeIH3Zvny5XRU2vD5BYRisTRsf1bao/wn8Bu2lSqGtUN+fn6dOnWWLFlC4g8fPvzggw9Yv6SlpUVFRSld94PyC3iEPcPasWNHtkj1/AievV+/frA7KCw4ONjPzy8vL4+RC8LOzg6GTqAb+GgxNDSMjIwku0BR1apVwXrgshJtMQxUhplUXFxccnIybICzqAqVCPpFvEyePBk+/eiotOHzC4xZ9l0+zT6EbYhwyv8f1g7p6enQV7nfyPj6+go5/0L5hSuR8PDw7t27k23VfoFS0MqzZ8+ghdDQUHYiBhIxMjIyMzMzNzeHWdvChQu5RQ4ODjARg6IrV67815YcECLstX37dhi/gGLi4+OpCpUF+kW8DBs2bP/+/XRU2vD5pfa8oNz8J+xD2IYIp/z/Ye1Aloi/evUqWwRqUMMv3MUSIQ6lZFu1X2AvGKfk5OSMGjWqTZs2t27dInHF5RxZSBGMs2QymYWFBaWYLVu2gFZglgQzu0aNGolnloR+ES/wEQefS3RU2vD5pazjF+ioMN3YvXs3W9S8eXMN+gU22GWklQJ/iKWlZXZ29qxZs+CpyffQpfqFkb9yUAzsy8oxJiYGjHPhwgWY7jVr1iwjI6PEnpUK+kW8eHt7wzFER6UNn1/Kev4FCAoKcnJyIpexwUzEwMCA9cu+ffvAHdCT2R1ZBPoFBiYuLi43btx49OgR3yVwmzdvhvEpbKxdu5acshXiF0auGGdnZysrK7JM9bRp065fvw4bU6ZMuXnzJnevSgf9Il7w5kZF+PzClP37o2vXrsEkpVq1anXq1AFTcOdHwr8/4vNLZmamq6trjRo1oB0YWbB1VCPQLwBZuIZVjGhBv4gXc3Pzly9f0lFpo8IvagAji4sXL/766690AaIh0C8i5cWLFx9//DEdlTya9QtS0aBfREqFrtz4xx9/hIeHt2zZslOnTkFBQXFxcXQNsYJ+0S3QLyIFBu0Vt3JjTEwMyOv27dv5+fnQY3UoBSf6RbdAv4iU1NTUvn370tHi4n/++ScnJwdKYYDDjb98+TIjI+OXX37h5qN68uQJDFWKiopOnDhx7949EgSnDBs2bODAgdACI79pBeqwu/z222+nT58G9cATQQX4DcG8vLy///6bVHjz5g3E3759W/yu/cLCwuPHj0M7bIVLly6dPXv2999/f9fqv8DLPnbsWHp6enkyZqFfdAv0i0hJTk4eOXIkFbx+/bqjo6OFhYWPj4+pqemePXtI/MKFC+bm5g4ODjY2Nh9//DGMfUgcIsOHD4eIi4vL+++/v2rVKghOmDChvhwnJ6dvv/0WitavX0/qgybq1q0rk8lg6gTPXqVKlWfPnkG8cePGR44cIXVALhAHp5D2hwwZYmZm1rZt26SkJIhcu3atRYsWsLuHhwc8xcGDB4vlTuzduzdUgxEZvH6YlJGm1AD9olugX0TK5s2bo6KiuBEYMkDPDw8PJ2MKGCbAwIRstGrVaurUqaTaqFGjoLeT8QX0f+jPMCSB7V27dtWqVYvsO2bMGFZerF9ev35tZWW1ePFi8lyDBg0S4hdQyfPnz0kR7OXq6jp9+nTycO/evQ0bNoQBTmZmpomJCTtKgsOObKgB+MUU0R3QLyJl2bJlCxcu5EZu3rwJHfvRo0fcYLF8yABxdnpy69YteHj//v1ief9fsWIFiYMRIP7w4cNiHr9kZWVVrVr1zz//JHEYEwnxy6JFi0gcgFkVFMFcLOMdtWvX/vnnn2EXIyMjUANMkdjK6oHjF90C/SJSYBSwbt06bgT6raGhITdCSE1N5cb/+usv6OTnzp0rlvf/bdu2ceM3btwo5vELtF+zZs3/b6W4+M6dO0L8wrZfLG/BwMCgc0nILQ6HDx8OCAgwNjZu1qxZfHw8u0tZQb/oFugXkQIKgBkNN3L37l3o2PCbGyx+N67Jzc0lD7Ozs9mHZfILaZ8dH4ERWL9YW1vv27ePxC9dusTnF9ICGSIp5eXLlzExMdWqVSNTNjVAv+gW6BeRMmDAgKNHj1JBb2/vXr16kSkMdFHigrdv3zo5OYEvYOPNmzf9+vXz9PQk9cvkF8DHx6dv377Pnz8HU7i7u7N+CQ4OHjp0aLFcEFCBzy/F8gXh+vTp8+LFi2L5Czt27Bi8JGjt+vXrpMKZM2fee+896qsl4aBfdAv0i0jp0qULjBSo4P3790EBMIuBAUXdunV/+uknEr969aq9vX2DBg3q1asHroERDYmX1S95eXmBgYGkfZidVa1aFfaCeGZmZqNGjczMzExNTefNm6fCL6C8bt26QQuffPJJnTp1HB0dX716BU6BV9ukSRMbGxvYWLNmDXeXMoF+0S3QLyKlffv2t2/fpqNyoG9fu3aNe9EKAfq2Bu+HjI+Pb9q0Kfvw9evXOTk5Auc1MDyBaVpBQQEbgVHMnTt3YBRDhKU26BfdAv0iUuDzn3z9rE327t27ePHiH374YcWKFfXr14+JiaFrVDYi8csC/lWQRLWOEgt89pC4lhdRQr+IEfi0h7EDuYZFm8A8a8KECb179x4xYgR7QldUiMQvKlZBErjOiYoWWNRbRImRJ3MwMDAw5nDkyBES1/IiSugXMZKfn29jY0NHEdH4RQUC/SIE1Uk2VcCXR4Yb184iSugXMXLjxg04DugowuMXGHNxM1ovXLgQ5ndk++zZs3369LG3t5fJZGFhYexyiAkJCdB77ezsgoKCuNlqp0+fvmHDhqVLl7q4uAwaNIiNUwhZR0nFIkoMpwWNL6LECPCL1hZRQr+IkfPnz3fv3p2OIjx+sbW1nTNnDvsQeiPp4dBV6tevHx4evn///sTExKlTp6anp0Mc+rCJiQlMPWAOGBUVVaNGjbS0NLKvl5eXmZlZYGBgbGws7MK2ScHNYse3jpKKJHgMpwWNL6LEyD3i5ub25B3Pnj3jxrW5iBL6RYwcPnwYjlE6ipTRLxkZGdDDqQySMKD46KOPFi1axEYGDhwYEhJCtqG3t2zZstTznawdVKyjpGIRJaakXzS7iBIjd0QVDtA+G9fyIkroFzECb/P48ePpKFJGv4BKWrdubW5uDv/MvXv3Qodk5DMm6GDDhg2Dzh8ZGQmDGl9fXxsbG7IvdFcY77BN8cHaofzrKGl8ESVG7hFnZ+fL7yDZv0lcy4sooV/ECEzjYahMRxFhfoFex/bwR48eLV++vFu3brVq1bK0tMzMzDx27BgYAYwziwPMbkh9KmU3H6wdyr+Okook4ar9wreIElPa+RdtLqKEfhEjC3BlWB6U+gX6zOTJk9mH0NkUeziIxtraGrRy9+5dAwODbdu2URUIZfVL+ddRUuGXQLUWUWJK8wujxUWU0C9iBMbtsbGxdBTh8UtERAT0rjt37hQVFUE/ee+990gPz8rKSkpKKiwshG3QipWVFbmcBGYT0LXYc7rnz5+H2RPZLqtfGP51lFQsosQI84t6iygxAvzCaGsRJfSLGIFPLTY3HcJFqV+gB8IUydDQ0MTEpEePHuwMBQzSoEEDIyOjxo0bV69eHWZJ5GxrXl5eWFgY1K9bt66xsTH8htEiaUoNv/CtoyT8+yM+v6i3iBIjzC+MVhZRQr+IkX79+qWmptJRhMcvjPybWuiN3PMgLNB5QDQwfqHiubm5EIcxTkFBAVVUVnAdJT7QL2Kkc+fOv/zyCx1F+P2CiBP0ixiBWbdiHimkWLt+ycnJ6aEM9jQqUiroFzFibW3NlCMJth6jTb88fvw4Xhl8l8whiqBfREdl3TytE2jTL0j5Qb+IDnLVKR1F5Ajxi8AMLHws0HRmFhUNCnypKlooPxWaLAb9Ijpu3brl5uZGRxE5QvxSzgwJQjKzlAkVDQp8qSpa4KJevpgBFZksBv0iOuBDIzAwkI4icrTgF22i2Zeq+n4CPoRcLKN2shj0i+hISUkZOHAgHUXkKPULXwYWgtJUL/Hx8dSl9zBP+fLLL5mSuV2AXbt2denSxcbGpkOHDuxtSkrb5ENIshhGZb4YbgsazxdTql8Uk8UwCo3wgX4RHXBAjxkzho4icpT6hS8DC8Of6oWs4sTeIlBYWGhmZgadgSl5bS5ZrWnSpEl79+6FXk0utOVrkw9ugypeqorrfbkteGk6X8yAsieLYQTni0G/iI7169d/9dVXdBSRo+gXFRlYVKd6gc9/9qRGcnIyeITcgsx2Zmi5bt26ZFDDorpNpXAb5HupjMp8MZRfNJsvZkDZk8UwgvPFoF9EBxx/ZJF5RBFFv6jIwKI61cvy5csbNGhA5iN9+vTh3rVMeix0eO4Yh6C6TaWwDap4qaqh/KLZfDED1EoWwwjLF4N+ER1ff/01u+AZQqHoFxUZWFSnennw4MH7778P8xQYR8AcZ8eOHSTOdubjx4/D7lSmAtVtKoVtUMVLVQ3lF777IVX7hS9fjOrzL3zJYhhh+WLQL6JDceVphEXRLyoysKhO9cLIv/ft2bNnTEwMTHlIdjuG05nv3bsHu8fGxnJ3KbVNRdgGVbxU1Qj0S6Ba+WJU+4VRliyGEZwvBv0iOmA+n5KSQkcROYp+YfgzsDAqU70A0NWrV68On+rcj31uZ4Z5k5WV1c8//8zIz7wcOnSIKa1NRbgNqnipKvLFCPSLevliSvULo5AshhGcLwb9IjrgcIEpOh1F5Cj1C18GFkZlqhegoKAABvYwZzl9+jQb5Hbm3Nzc4OBgGHTUq1fPyMgoICCAKa1NRbgNqnipwr8/4vOLevlihPiFUTdZDPpFdLi5ucHcmI4icpT6hSktA0s5U73cuXMHdqdum1a7TdUvVc9Av4gOGxub/Px8OorI4fMLIk7QL6KjadOmr1+/pqOIHNH6BZPFKAX9Ii5+//335s2b01HkHaL1CyaLUQr6RVw8fPjQycmJjiLvEK1fEKWgX8RFVlZWx44d6SjyDvRLRbNAo7lm0C/i4syZM7169aKjyDvQL+Wk1BwxAnPNCAT9Ii4OHDgwdOhQOoq8A/1STlTfQ6Bx0C/iYseOHV988QUdRd6h1C/Tp0/fsGHD0qVLXVxcBg0aRIKrV6/28PCwtbUNDQ3lXr3OFyd5VaARmUzWvn37+Pj4oqIi6B5OTk7e3t7kmlcV8KVlAQ4dOjRgwABoB15eRETE/fv3ubsIfEalGWdUpIxh5Ldi9unTx97eHtoPCwvLyclRzBGj+K8TkmuGkWe0gHFQmzZtSCKbJUuWQDW2lAX9Ii6+/fZbeNvoKPIOpX7x8vIyMzMLDAyMjY1NTExk5Jfe16hRAw7u3bt3d+3atV69emR9Nb442wiIIC4ubsyYMYaGhtDfBg8eDA/Dw8ONjY25C8grwpeWhZHf9QOdds+ePTt37nR1dXVzc2N3EfiMfBlnVFzy+/Tp0/r160M74Cn4n0ydOjU9PV0xR4ziv466Vpjvj4KXUbt2bXDKrl27/Pz8uIlsuKBfxMUCXNleJXx+admyJXvHDXye16lTZ86cOezDpk2bQgfji7ONwMCBbENT0OvgE5s8LCgoqFu37qZNm8hDpXjxp2XhAi5gL94X+IwqMs6oSBkDQzN4IsVr+an5EfWvYxT8ovSPAnnVrFkzJiaGxOEFgKnRLzoArmyvGj6/wAc1+5B0LZgdsBEYFwQEBPDFybZXybwqMCPg3uZjY2Oj9KlZqN25aVlgGDJx4kRPT09opFWrVlWrVoXPfMVd+J5RjYwzjNxKrVu3Njc3Hz9+/N69e9m7wxX9wv3XMQp+UfpHgR/hJcGAiC3y9/dHv+gAo0aNSk5OpqPIO5R2cq+St/yRNCuZmZlsZMSIEdC9+eJkm2oEJjLQn9mHtra27MBHKdTu3NsO27Zt26lTJ3hbYbhx/vz5atWqkVwzAp9RjYwzhEePHsFYuFu3brVq1bK0tCR/uKJfuK+BUfCL0j+KZN66fPkyWwSTTfSLDhAaGnr8+HE6irxDiF9yc3NhjLBz5042AvOOwYMH88XJtsDezgdfV8zJyYGueOnSJRIneX/L5Bc1Ms5QgGisra3BUIxCjhj1/JKXl2doaLh161YSh9lckyZN0C86QJcuXWDYSUeRdwjxCxASEgL9k9z7s379etAKjAJUxBmFRvh6Ox98XfHx48cwYImOjmbkWVRgagNPWia/MPwZZ1SkjMnKykpKSiosLGTkhrKysiKXvVA5YhT/dUL8AgwZMgTaPHLkyNWrV6FNY2Nj9IsOgMkZVCPQLzdv3vTw8ICP/dq1a5MvjFTHGYVGVPR2pajoiosXLzYyMmrYsKGJicm8efOgK5bVL3wZZ1R8fwQyatCgATxv48aNq1evDrMkchqYyhGj+K8T6BfQU//+/eEvghcDdaD9iIgItiYL+kVctG7d+vnz53QUeYdSv/CRnZ0N3Uzx6xW+eMXx4MGDs2fPKh1oCEeNjDPkL2W/g68g4PVYWFiQMRoF+kVEvH37FpMzqKZMfkEqjlOnTq1cuRKkefTo0b59+9arVw8cSldCv4iK3377rUWLFnQU4VC5fsEkLyznzp3z9fW1tLSEI7ZXr16Y31sHIClO6SjCoXL9gkleygr6RURgcoZSqVy/IGUF/SIiTp8+3bt3bzqKcEC/6BboFxHx448/Dhs2jI4iHJYsWaL0PGKp4BRG+8A7tWzZMvotVAv0iwbYuXMnJmdQDRy1oJj//e9/C1QyZ84c7sMxY8ZYW1tTQaRCgfcI3il4v+i3UC3QLxrgu+++mzlzJh1Fysiff/4pk8kOHDhAHp45c8bGxiYtLa1kLbFjampKhyQM+kUDLFy4MDo6mo4iZQHkAr8vX77s5OS0fPlyHZVLMfqlJOgXDfDll19u3LiRjiKC4Y5cnjx54unpaWFhceLECbqeLsD1y5s3bzglUgT9ogHGjBmza9cuOoqUBe7IpXXr1n379u3atSu4hq4nSl6/fn3v3r3Tp09///334JeIiIigoCD4c6ysrCSuGPSLBhg0aNBPP/1ER5EyAjbx8PBgRy7gGuii4B26nsgAg4BHnJ2dg4ODx40bB36Ji4sDS96/fx9vGUG/aIAePXqcO3eOjiJlBD7/mzRpEhISwo5cYMYE8yZyakbMcAcpOD/ign7RAF5eXtnZ2XQUKQvXr1+3t7c/dOhQccmRi/jlUozzI37QLxrA0dExLy+PjiKCIavrJiUlsRFdGbkU4/xIJegXDdCsWbM//viDjiLCKCgo8PDwWL9+PRXXCbkQ2EEKbIBfJD5m4YJ+KS+vXr1q2rQpHUWEARLp2rXr/Pnz6QKdBQezXNAv5eXZs2e2trZ0FBEAfM6HhYVNmDCBLtBlAgICMBMzC/qlvNy6dcvNzY2OIgKYOHHiwIED9ewkxZAhQw4ePEhHpQr6pbxcunSpS5cudBQpjSVLlsBHvf6dt4qKitq0aRMdlSrol/KSmpoaGhpKRxGVxMXFubi4wNSSLtB9li9frk+nk8oJ+qW87NmzZ+TIkXQU4efEiRP29vb6upxLfHx8REQEHZUq6JfysnXr1ilTptBRhIfs7Gw7O7uff/6ZLtAXTp48GRISQkelCvqlvKxcuXLevHl0FFHG48ePZTKZfi/UffPmTTzfz4J+KS9z584FxdBRRIE///yzU6dOK1asoAv0ixcvXjRr1oyOShX0S3mByRFMkegoUpJ//vlnyJAhEskiam1tXVRUREclCfqlvIwaNWrPnj10FCnJzJkzQ0JCXr16RRfoIz4+PleuXKGjkgT9Ul769+9/7NgxOopw2LJli6enp6ZSRoufAQMGpKSk0FFJgn4pL4GBgRcuXKCjyDuOHz/u4OBw7949ukB/mTx5Mk6ZCeiX8gKfzDk5OXQUkZOdnW1ra3v+/Hm6QK+Jjo5eoKH1yXQd9Et5gQ/nx48f01FEnu9S77+NVgpeYseCfikvlpaWOpSpRGvA/yQgIGD58uV0gQQ4ffp0r1696KgkQb+UC0z+ohTybfT48ePpAmlw+/ZtV1dXOipJ0C/lApO/KGXGjBnS+TZakZcvX1pYWLx9+5YukB7ol3KByV8U2bhxY4cOHaTzbbRS7O3t8axcMfqlnGRkZAQEBNBRCXP48GFHR8f79+/TBRKjS5cuFy9epKPSA/1SLk6cONGvXz86KlV++eUXGxsb+E0XSI/hw4fjVd3F6Jdy8sMPP3z22Wd0VJLAmAVGLjB+oQskyezZs1evXk1HpQf6pVzs2LFj0qRJdFR6FBUVeXp6bt68mS6QKhs3bpw2bRodlR7ol3KxZs2aWbNm0VGJ8fLly+Dg4G+++YYukDAwjhs0aBAdlR7ol3Lxv//9Lzo6mo5Kibdv344ePXrEiBHcr2O7dOkiqst2g4KC4uLiyPajR49+//13pUV8CKlDceXKFR8fHzoqPdAv5eKrr76CkTAdlRLz58/v0aPH33//zQ06ODhs27aNG6lcXFxc2PUhnZycuPM4eP2nTp1iHyqFu7tAGIZp0aIFHZUe6JdyMXbs2MTERDoqGUAibm5uBQUFVJz4paio6MSJE4p3Tt+9ezc1NRU+4f/55x9uPCcn59ixY+np6UovzHvy5Mkff/wBzwX7Pnz4kASzs7PPnj3L2i0vL4/dfvPmzYMHD8ioihXE8+fP7e3tly1bBkVPnz6FCPxm10ghT5Gfn3/8+HF4kSTI3Z0ALV+6dAmelzsOUoSbZYrvhREU/3C+p1CsKXLQL+Xi008/lew3JnCgg0fu3LlDF8j9Mnz48I8//hh65vvvv79q1Sq2aMiQIVZWVr6+vpaWls7OztDhi+X3E/Tu3dvMzMzf39/R0bFTp07/tfUOaHPo0KHQpkwmMzIygvkXPARZWFhYwG/iiMaNGx85coTUhz5cpUqVwsLCYo4gvvzyS2NjY3hqGMXAK+EWkacYOHAglHp4eNSoUWPRokUkzq1z7do1GJi0bNkS6tSvX1/FUmodO3a8fPky2eZ7YUr/cKVPobSm+EG/lAuYmcOHDB2VAFlZWba2tnyXkEFHhT7w22+/wfauXbtq1arFDlWgd5ENiPTq1Yt8yZKZmWliYsKOI5Re+wttgo9evHgB29988w30fxiGwDaMC5o3b06WNOPrxirmR5RfwF9kOAYjr2rVqpFFVNg6MOhwdXWdPn06qb93796GDRvyLRHHXciR74Up/uF8T6FYk2yIHPRLuYDPYQlmQszNzW3btu2BAwfogndAR2XzeENHgu7Ezmig/6SkpEDpnDlzevTo0blz52J5l4Mhyfz581Vk0oE2Y2JiyDZMkQwMDNgZR1hYWGRkZDF/Nxbul7lz57JFUJOMvNg6t2/fhjZBPRnvqF27Nt9aK+CIdevWkW2+F6b4h/M9hWJNnQD9Ui7gE5X9QJYIMCoBq3733Xd0AQfu+d2//voLOsyNGzfIw+7du7dp02bWrFkgiwEDBkDXJXGYZgYEBMDkpVmzZvHx8STIhdsmjBnhw5wtCg8PJ/dq83Vj4X7ZsGEDW9StW7evv/6aWwe6PXitc0nS0tLYXbiAXNhhCN8LK1b4w1U8Ran/IhGCfikX1tbWujJS1QivX7/u169fqVeO8fkFphvQeci8qVj+Cc/6hfDy5UvwDkxM2DosQvwCb8e+fftI8NKlS0r9IpPJuOtDU35hjQDY2dkRjbJ17t69yx2LqQYmR+QUTzH/C2Nh/3AYDqt+ChX/IhGCflEfGOo3adKE+hJEv5k0aRJMRt68eUMXlITPL/fu3YNtctYTIg0bNiR+gX57/fp1Uv/MmTPvvfee4lczQvwSHBw8dOjQYnkn7Nu3r1K/9OzZc+LEiey7RvkFBhqkbycnJ7///vswE6TqwNitT58+5DQQHADHjh3j+2/An9mxY0eyzffClP7hSp9CaU3yUMygX9QHPkAkdY3DqlWr/Pz8yHGvGj6/FMsNVaNGjVatWjVv3nzChAnEL9Bh6tatC7K2sbGBjTVr1rBNsQjxS2ZmZqNGjczMzExNTefNm6fUL/BcLVu2NDIycnd3p4rgKcaMGWNhYQGvDaYh7JVN3DqPHj2CeVPNmjU/+eSTOnXqODo68n1VXFRUBMMWss33wpT+4UqfQmlN8YN+UR9ympOO6in79+93cnLKy8ujC8rO06dP4aOY+tiHh3fu3IE4+IgbLyswg8vJyVFv7kAU9vfff1+9elX1tBfGDtnZ2YoX/lBwL4Hhe2F8f7jiU/DVFDPoF/WBt9/b25uO6iPp6em2trZZWVl0gX7BHSJpBO4lMNIE/aI+58+f7969Ox3VOx4+fAhDdPbrDz0mIiLi+PHjdLQccC+BkSboF/VJSUkZOHAgHdUvyOlG9joOpExwL4GRJugX9UlKSvr888/pqB4BE3720jVEDbiXwEgT9Iv6bNmyRb/7HvSNfv36vX79mi5AhMG9BEaaoF/UJyYmZt68eXRUX9i2bZukFqWvCLiXwEgT9Iv6gFzYO2L0jNOnT9vb2yu9NxoRDvcSGGmCflEfmBzFxsbSUd3n9u3bIJczZ87QBUjZadGihZTHgOgX9fn88893795NR3Uc6AweHh7bt2+nCxC18PHxkeAd9izoF/UJCwvTs6tC3rx5ExoaKvGvPDTLoEGDJJuBrBj9Uh569Ohx7tw5OqrLkC+M+G7YQ9QgKipKyhma0S/qA0Pfq1ev0lGdZefOne7u7lI+WVARrFq1avbs2XRUMqBf1MfJyUlFng7dAgZidnZ2JB0kokH27NkzfPhwOioZ0C/qozfJpR48eODg4JCamkoXIOXm4sWLXbt2paOSAf1SZt68ebN69Wp/f39TU1P4Dds6fcLijz/+6Nixo8Rvk6k4Hj9+bG9vT0clA/qlbIBKevXqNWjQoF9++eXFixfwG7YhoqOKefv2bXh4+MSJE+kCREPAf9jCwuLly5d0gTRAv5SNVatWhYWFUUGIcJf40SEWL17co0cPvgxsiEZwcXG5ffs2HZUG6Jey0blzZxizUEGIdJavsyFm2Gndxx9/TKZ1e/fulclkz549o6siGgWGt6dPn6aj0gD9UjaaN2+umFcZIhCngqJCcVo3YMAAGLf/+uuvdFVE00REROjKciIaB/1SNnR0/KJ0Wte/f38dndbpFgsWLIiOjqaj0gD9UjaUdlTxn3/RUS3qB1u3bp08eTIdlQbol7KhONHQie+PdHRapx8cOXJE7/Oo8oF+KTOKJ0pFLpdiHL9UKleuXPHx8aGj0gD9oibPnz+nQyJGR6d1+oGUs0yhX9Th/PnzpqammZmZdIFY0dFpnd7QrFkzIete6h/olzKTm5vr6OgIfunQocOff/5JF4uVZ8+e6dy0Tm9wc3O7efMmHZUA6Jey8fvvv8Nceu3ateCXcePGkWWPxcnLly/T09NjY2MnTpwIxze8YLLmMaJ9QkJCTp48SUclAPqlDMAHfv/+/aOiomAbuisMXmAII55Lp7hC6dixo5WVFfyeNGnSqlWrbGxsWrZsSe+AaAvJXmKHfikDkZGRAwYMINMK8Av8vn79OnRd+E1X1TqvXr2ytrYmQtmyZUtGRga5p+7vv//u0qULOBHmRPQ+iLaYP3/+8uXL6agEQL8I5bvvvvP19WWvIiF+AeLi4kRyIkbpbYqjR4/+/PPPDx8+PGjQILoM0RabNm0iw16pgX4RxMGDB9u0aZObm8tGWL8Aoj0REx0d3bVrVxjCSPkSUjEg2YUc0S+lA2MTmUxGfRvN9YvYTsQQ9u/f7+Tk9OTJk2J5HgaAroFoi/T09ICAADoqAXj9Ar1l3rx5ixA5MH+mIuAX7sPIyEhra2vFapUFvBJ4PTBmIQ/9/f1hflSyimbQvxWgKoK8vDxHR0c6KgGU++XEiRMJCQkMUhZgpECHKhXu6wkNDU1OTuYUaozExERpfvMqEHI3iZ+fH3wgwW+pXXak3C8wcikqKqIPJURn8fX1TUtLo6OaAI4TGCvRBxAiBy+b5vULfRwhuoydnd2NGzfoqIZAv/CBt32hX/SfgoICCwsL+E0XaAj0Cx/c29b/+ecfsiGp29Z12C8wMk9JSZk2bZq/v7+DgwPMb+E3bEME4ji/41JYWEiHNAf6hQ827Q7IxdzcnEyLJJV2R1f9cvDgQR8fH7cO7mO/Grc0YcXGo1t2Z+6D39GJKyO+Gu/ewR1KoQ69G1IBoF/44I5fbG1tnz59Wozjl2Jx+wXG+ZGRkU4yp9lr5oBT+H7mrJ3vJHOGmhU3L0AI6Bc+uOdf4APvypUrxXj+pVjEfgFZhPYP7RLUdcfZeEWnUD9Qp2twYP/+/VExFQr6hQ/u90chISGbNm3C74/+RbR+mTp1akDPLokZexRtovQHanYNCoRRDN0QojnQLypgs6k2adJEJpPh9S//Ik6/HDx4sK2s7fa0EiOXubH/Gz1zrOLPznOJpALUh8kUnoupONAvQpg1a9a3335LR/UdnfFLUVGRt4/3jG9nUyOUjsH+VZSx7qdNbJ2Z387x8fUR8o3SkydPfvjhh3Xr1iUkJMBsmS4uOwsWLPjuu+/oqH6BfhECjFxmz57NPpTIKEZn/JKSkuLq0Z6SC+sXo+pGLR1bcX82p27jVnPzdIMW6EZLcuTIkUaNGtWvX9/V1bVZs2YGBgZwQNCVSvLZZ59RdahI7969x44dyynXQ9AvKnj9+vW9e/dOnz49adIkHx+fiIiIoKAgJycnKysrKShGZ/wSGRU1Imo0n1/MLBsrFnF/Rk8bM23aNLrRkjRv3hze+/z8fPLw6tWrcFiUrELTuXPn0aNHq47oPegXPsAg4BFnZ+fg4OB+/fq5uLjExcWdOXPm/v374B26tj6iM37x9vVeGr9CURwC/QL7+nb0pRvlADMjaGf9+vV0wTtgxgTusLOzAwedPHkSIsuWLYPxDlipl5xr164pRubOnQsDY9LC9OnTN27cuGLFinbt2rm7u7NxRn79G4x62rRp0759e5hPLVmyBKqRorNnz/bp08fe3l4mk4WFheXk5LB7iQT0iwrYQUpWVpavr2/JQv1HZ/xia2e78dhWRXEQv9T8oGbgwO7sz8RFU6hqsK+tvR3daEksLCxg4Hr06FHF77PBBSYmJqCAffv2RUVF1ahRIy0tLTU11dHREaSzVU5ubq5iJDAwcPjw4aQRLy+vxo0bw4zp+++/nzlzJsy/oDVSBG3Wrl0bnLJr1y4/P7+GDRt++umnEH/69CnM18LDw/fv35+YmDh16tT09HT2VYkE9IsQ4APM1taWjuo7OuOXpk2bJlxK5vMLBQSparAvtEA3WpKUlBQYzcLuxsbGHTt23LBhA4k/f/78o48+WrRoEVtz4MCBISEhjLLZEBWh/AL2YU8zw1OQIpBIzZo1Y2JiSPzx48f16tUjfsnIyIDXk52dTYrECfpFCDCQgQ8w9i4kiaAzfrFROX4xqWXSKSSA/Rk/fyJV7d/xi50t3agC0PmPHz++YMECcAE0O27cOEY+Q4HtYcOGwSgjMjISBhEw0LWxsWEUbKIYofzCLYJRSffu3WHjwoUL0D53YOLv70/8Ampr3bq1ubn5+PHj9+7dy54bEhXa9AvMTOHgnK+b6O4rLxXoMvABDN2Her90xi9ePl7lPP/i3dGHblQlo0aNqlatGvTwY8eOwVNAD5/FYdmyZYyCTRQjlF8mTJjAFkEcSmEDplrQ/uXLl9mirl27Er8Ajx49Wr58ebdu3WrVqmVpaZmZmclWEwnzteWX5ORkmCTST4+IgwcPHijmYNUZv0yKnDw8cqSiOAT6ZXjUqMiosl3FCxOWqlWrQve+e/eugYHBtm3b6BpyfYwcOVJFRIhf8vLyDA0Nt27dSuIFBQVNmjRh/cICr8Ta2ho0R8UrHa35BQ5f+rkRMQHeoN4ynfFLSkpKO/d2iuIgfmnQuGHMnm+5PwnpJU7WuHi4qr7+5dmzZ3379j1y5AhJK3nu3LlWrVrJZDJSGhoaCmMHNgXc+fPnYbbCyMc4Li4uN27cgM5PTqxQESF+AYYMGWJlZQXPfvXqVWjB2NiY+CUrKyspKYlkVwDNQZ1SL8nRPlrzC/cUGCJCdNgv0Fc9vDynq3X9LuzVwbuD6ut3YR7UqVOnGjVqwFAFfkMLPj4+7JwFhhhhYWEwyqhbty50fvgNcxaIw2zF1dWV1L9w4YJiRKBfQEb9+/c3MTGBlqEOzIYiIiIY+dSpQYMGRkZGjRs3rl69OsQfP37MtiAS0C8IQYf9Ahz48YCDkwN1/1GpfoH6Dk6OAu8/glEMCAIGLw8fPqTLGCY3Nxc6PIwpFL/A1iAk3Vx0dDQbyc7OhueF8QunlojQM7/A59CeH/eO/uJzN2/3VratTU1NW9u19vDxGDdp3OEjh1V/Skkc3fYLMGHShI7d/ct0/7Rfd/+JUybRDYmMU6dOrVy58uzZs0ePHoVpWr169R48eEBXEiv65Jf4PQkuHi7ObrLPIkdy85bBNkSc3WXuHdzhc47eDZGj836Bz/bgPr06dvcTmP8FZNS7b0iFDjc0AoyYfH19LS0tW7Ro0atXr4yMDLqGiNEPv8AEefj4kXZO9opzcO4PlMIgGj6xxH9QaR+d9wsjV8z4SRPsnRwEHQeTJ+JxUNHogV9ALoG9ugn/3IJBcZ9+ffDQotAHvxB+OPCDWwd3GK/iOLbS0QO/jJwwCuTCnXerzisENf17dJo8dTLdkLTRH78w8vNwP6UcGT95vKePZ2s7G/l5OBtPnw4TpnwBcTwPpzV03S+79u2CaZEa3xu0cW6j+nuDy5cvp8o5c+bMlStXNHJMijmjkF75BREJOu0X6POuHdorzrWF5BWa8e1sbx9vFdYYMGCAoaHhhx9+WKdOHQMDgw8++GDw4ME3b96k65UFMWcUQr8gmken/XLg8I8wm6bkwvql1OvC26vMWwZ+8fDwINtPnz5NTk5u1aqVubn5nTt3SlbUE9AviObRab+MmTi2PPedjJ42VkXeMq5fCDk5OcbGxl988QUbUcwrBMTHx1P3naxcufLLL7+EDW5GIWDXrl1dunSxsbHp0KEDuSeOoLTZis4lhH5BNI9O+8XD20PFfbOl5hWCff38/OhG36HoF6BXr17Q7cm20rxCEL906RI8O3s/SmFhoZmZ2YIFC5iSd7TFxMRUq1Zt0qRJe/fu3bhxI3t1uNJmtZBLqAx+2bx58zwEKY3Y2Fid9ksr29Yq8n5QKOYVgn3t7O3pRt+h1C8TJ0788MMPGZV5hYB27dqx51lgYgUeuXXrFsPxS35+ft26dcmghgtfs1rIJTRPuF/oXRGEB532S5OmTVTkLSs1r5DqvGVK/TJ+/PgGDRowKvMKAcuXL4dqIAvYhkkNe6sa6xeS1oMd47DwNauFXELoF0Tz6LRfWqscv5R6/gX2tS/j+KVjx44uLi6woSKvECNPp/L+++8nJCQ8fPgQJjg7duwgcdYvx48fh90VL/VW0WxF5xJCvyCaR6f94unTQcX5l1L9siJxdZnOv5w4ceK9994jZ1JU5BUi9O7du2fPnjExMTDfYYcbrF/u3bsHu8P8tMQ+ApplKiyXEPoF0Tw67ZdJUyep+P6o1LxCk2ZMVv39kZOTEwwxLl26dPjw4a+++goGDmCcp0+fkgp8eYUIu3fvrl69up2dHV9GRJg3WVlZ/fzzz4z8tMuhQ4dIXGmzWsglhH5BNI9O++XfvGUeLnx+UYSbVwh+PL08VV//QvaCMUu9evU8PT2jo6PJKRUCX14hQkFBQaNGjWB37jpcXL/k5uYGBwdXrVoVGjcyMgoICCBxpc1qIZcQ+gXRPDrtl6Kiog7eHfiu31WE65dFG5b4+vqquH5XIOXMK3Tnzh3YXfFiFqXNVmguIS35RcUtEsuWLVu5ciUdVUBFC+WHe1cITGKpoosXL3IjFy5cOHnyZPmPIT1Gp/0CHDx40NG5DXX/Uak/cT8nytq1U33/kdTQkl9U3CLRt29fxczViqhogYvi8s9CYO8KgckwfCJ5e3uz7qdOyC1evLhatWpr1qxhI4giuu4XYOrUqZ16dhaet2zXL3uDegdHRpYtY7zeoyW/qECgXwSiuDyIELgSOXfunKmpaVBQkGLRjBkzYJq6fft28hDhQw/8AjOI0NDQgJ5dhOR/ift5d3Dv4P79+6s3ndFjtOQX7i0SMLOAh23btiUrK3P9cuvWrUOHDnFPd7EIWbZZcbHn//YvCXu6nmxQg5Rx48Y1bNiQbLNFEyZMMDY23rNnD1uNagRh0QO/MHLFwCjGSeY0+7u5ik5hf5ZujIbjEEYuKBdFNOCXxF+OO68Z88G8IPgN23SxHO4pbpi/1KxZE1yQkJAAXZddWRlYt24dTE9u3779357voNLuK122WXGx5xJNyAG7gSmSkpJgA0Y6Bw78m3GK8ktYWFizZs3INhS5ubkNHTq0du3aP/30E1sHGDx48NGjR0kd9oYxhNEXvxAOHjzo4+Pj3sFj3NcTVu5eQ/KWxR7bviZp3ZQZUzt4dYBSPOfCR3n9AkKxWBq2PyvtUf4T+A3bShXDvUWiTp06S5YsIfGHDx9+8MEHrF/S0tKioqKUfklG+UXpss1MafMjePZ+/frB7qCw4OBgPz+/vLw8Ri4IOzs7GDqBbmASZGhoyE6koahq1apgPXBZibYYBirDTCouLi45ORk2wFlUBcmiT35h5J9JKSkp06ZN8/f3d3BwgPcafsM2RCCOZ/pVUF6/wJhl3+X/voqHbYhwyv8f1g7p6enQV7nfyPj6+go5/0L5RemyzUxpfoFS0MqzZ8+gBZhdsxMxkIiRkZGZmZm5uTnM2hYuXMgtgoMJBsBQdOXKlf/akgNChL22b98O4xc47OLj46kK0kTP/IKoTXn9UnteUG7+v8sbEmAbIpzy/4e1w5kzZ8AvV69eZYtADWr4hW9ZMtV+gb1gnJKTkzNq1Kg2bdqQ208ZhfkRF1IE4yyZTGZhYUEpZsuWLaAVmCXBzK5Ro0Y4SyKgXxBCef1S1vELdFSYbuzevZstat68uQb9Eqiw/DMFHPqWlpbZ2dmzZs2CpybfQ5fqF0b+ykExsC8rx5iYGDDOhQsXYLrXrFkzxfvKJAv6BSGU1y9lPf8CBAUFOTk5kcvYYCZiYGDA+mXfvn3gDqUrJQr0i+Lyz4ps3rx5//79sLF27VpyylaIXxi5Ypydna2srEjKDJh+X79+HTamTJlSzhSqegb6BSGU1y9M2b8/unbtGkxSqlWrVqdOHTAFd34k/PsjPr8oLv8sBIF+YeT3yHMVgyhFm37BtGeiJTY2dl75/aIGMLK4ePHir7/+ShcgeoE2/UI/NyImKscviH6DfkEI6BdE86BfEAL6BdE86BeEgH5BNA/6BSGgXxDNo0N+UZFXSMyZiXQlLRH6BdE8OuQXFXmFBGYOUdECF81mJqIumxBtWqIy+MUUQYShQ35RgUC/CET1nSt8cD3CzUzEjYs5LVEZ/ELviiA86JBfRJWZSDGjEDVOYTMTsXHFtESMsnYqC/QLonnE4Bchl5UzoslMpDQtEaPgFzYz0QD+tESMmDIToV8QzVPpfhF4WxwjjsxEfGmJGLkglGYmGsCflogRU2Yi9AuieSrdLwJv62fEkZmILy0RI/eI0sxEA1SmJWJEk5kI/YJonkr3i8C0RIw4MhPxpSViFOZHVJwvLREjmsxEOuYXvmsNxHCpAsO5WoHl0aNHJK4TVytoikr3ixrjl8rNTDRfWVoipjS/MMrSEjFiykykY37hu9ZA4FeJfLtTqHepAiN/1w0MDIw5HDlyhMR14moFTVHpflHj/AtT2ZmJFNMSMQpHDgs3TqUlYsSUmUjH/MKHQL8IRMVQVjVCjgYxX62gKSrdL4xa3x/pUGYiKi7atETl8gv8K7nnjUD5K1asINtnz57t06ePvb09DN7CwsLY8V5CQgL0XngX4bOCOyecPn36hg0bli5dCo4fNGgQG6dgrzWo9EsVGGVXGZR6NCheraDYiB4gBr+oB2Ym0izl8outre2cOXPYh9AbSSeHrlK/fv3w8HAY7yUmJk6dOjU9PR3i0IdNTExg6gGjzaioKHB5Wloa2RfEb2ZmBrKPjY2FXdg2KdjPikq8VIFRebWCm5vbk3c8e/aMG1d6tYJ4LlXQILrrF0SzVIhfMjIyoIdTQzUYUHz00UfcA2LgwIEhISFkG3p7y5Ytlc5LuRBBVOKlCkxpVytU4QDts3G+qxXEc6mCBkG/IIQK8QuopHXr1ubm5uPHj9+7dy90SEY+Y4IONmzYMOj8kZGRMKjx9fW1sbEh+0J3hfEO2xQfRBCVeKkCU9rVCjANvvwOco6NxFVcrSCSSxU0CPoFIWjSL9Dr2E7+6NGj5cuXd+vWrVatWpaWlpmZmceOHQMpgHFmcYAJDqlPnRjjgwiiEi9VYCrgagWRXKqgQdAvCKFcfoE+M3nyZPYhdDbFTg6isba2Bq3cvXvXwMBg27ZtVAVCmfxSuZcqMBq9WkE8lypoEPQLQiiXXyIiIqB33blzp6ioCPrJe++9Rzp5VlZWUlJSYWEhbINWrKysyOUkMJuArsWe0z1//jzMnsh2mfzCVPalCozmrlYQz6UKGgT9ghDK5RfogTBFMjQ0NDEx6dGjBztJAYM0aNDAyMiocePG1atXh1kSOdual5cXFhYG9evWrWtsbAy/YQ5FmiqrX0R4qQIjzC+MiK9W0BTa9AubdAYRIeXyCyP/phZ6I/dUCAt0HhANjF+oeG5uLsRhjFNQUEAVlQm8VEG0aNMv9HMjYqK8fkEQRdAvCEGMfsnJyemhDPY0KiJy0C8IQYx+efz4cbwylF4yh4gQ9AtCEKNfEF0H/YIQdN4vfCldMCNMJYJ+0RQVfXxWNDrvF76ULgIzNvDtToEZYcoE+kUgpR5XAo9P0aLzfuFDoF8EovqOARUIuSJG/zLCoF8EovZxpSuUyy9Kk7asXr0aeo6trW1oaCj3ane+OMnDAo3IZLL27dvHx8fDHAGGhU5OTt7e3uQaWRVgRhgRUul+4XsrATgS4J8PRxcctBEREffv3+fuIvA45EtjpOJIU8yIpHhcKXYoIccnUFhYCOOgNm3akIN/yZIlbCamyqVcfvFSSNqycOHCGjVqwLuye/furl271qtXj1xfxxdnG4G3PC4ubsyYMYaGhvCfHTx4MDwMDw+Hvse9gVAR9pJczAgjHirdL3xvJSN/bdBpQeg7d+50dXWFd4HdReBxqCKNEd+RpjQjkuJxpdihhByfALwMOJDAKbt27fLz8+Me/JVLef3CTdoC2q5Tpw57RzU8bNq0Kfwr+eJsI/ARQbahKfj/gpvJw4KCgrp1627atIk8VAp5AzAjjKgQg1/43kou8H6xt4AIPA5VpzHiO9KUZkRiFI4rqkMxwo5PkBd8ssbExJA4PDt8fuuJX7hJW8g/EcaBbAQ+AQICAvjiZNurZB4WGPtxbwuysbGBg5V9qAh5AzAjjKgQg1/43koYhkycONHT0xMOrVatWoHl4TNfcRe+41B1GiM+lGZEYhSOK6pDMcKOT/AjvCSSIpLg7+8v5ODXAuX1C/c9IGlZMjMz2ciIESPgjeSLk22qERiywjvHPqRSzChC3gDMCCMqxOAXvreybdu2nTp1grEhSPz8+fPVqlXbsWOH4i58x6HqNEYqUMyIxCgcV9RrYIQdn/CHwEuCTy+2qGvXrkIOfi2gSb/ABBI+DWBay0ZghAkzWL442Rb4vvJB3gDMCCMqROsXeF+gK166dInEYQMelskvqtMYCYHNiMQoHFfq+QUm44aGhlu3biVxmM01adJEyMGvBTTpFwAmovBOkN61fv166PPgexVxRqERvveVD/YNwIww4kG0fnn8+DEMWKKjoxn5vx2mNnAolskvjMo0RnxHGl9GJOq4UuxQAo/PIUP+r71zCY1i6eK4EhLBCD6yUHcR1I2LIMaNiAHRhQiaCAbcXO5ON0FBiRBQsxB1rm9cudKlig9UEPGBwUg0G+G6VQmu4i6ppa7u+br4irJOndPV1T3T3TPntxCnp7um6lTV35lk+uff0Obr16/hXyloc/ny5e2ZL7AfYNvA3l65cqX+hRF/XKFGmHn1YiZAjDDVobL5opKvMvb09Kxdu7a3txdWNWzFrPnCaIyolUYZkZx1hTdU4PqEeDpy5AiMCDoD50D7Y2Nj5swSyZUvFNr8gn+KTh0vikUxwlSD0vOFB9L848eP+F1GJiI0RpQRqVigP/D5Wr9HK52m5IvQ4VQ8X9qP6enpW7duQWi+fft2dHS0r68PMtQ9qQzqkS9ihKkXki8tZnZ2dvfu3f39/Zs2bTp06FB1fidQj3wRI0y9kHwRNPXIF6FeSL4IGskXoXgkXwRNtfKl7jadZlOX+lQtXwJlY3mIm5q4q5pKsV1qab44Nh0s16m7TScnuCAOdalP1fKlWBmQl8CpcaY48KoCafEaa2m+OHdb8Df1dCBtU5AOzJdASp/iFncgV75gZY4+7rXvODadc+fOYWlTk2w6VFOUashcksc2lEk1pFB9am0bKj1fFmnZmCLmyzspmocPH+7bt2/Lli27du3StzKmTg08e+nSpcHBQTiBEZXZV6k0B5t3rjMtM9wBhcZS7BqLzxevMkfR9h3HpvPixQssbXK+DV2UTYdq6gKhGtKX5LQNUV8Vp+rWTrah0vOFkY1554uaFJXcbtrd3X3y5MmnT5/CZtPf0E+dGnjFgwcPPnr0CF4ILocNrHxTbF/FO9iouc60zHAHFBpLsWssPl+8yhzevpP6+cgZW1E2HaopG1s1pJJLctqGsqqGFCrIUG1tQ+XmCyMbo+aLmhRoCuZ6YmLCOZ46Nf39/fpuRuD48eObN2/Wf3em2FyV6mDzzrXKvszwpnPGUuwai88XrzKHt+9kzZeibDpUU5RqCF9SoG3IWzcNzpea2obKzRdGNkbNFzUpWq1ibpU2pE6N0Y8A8AYZlpaOACpfMjnYbF0WBTUivOmcsRS7xuLzRfmUObx9J2u+eO8WjbDpUE1RqiF8CXU3LT9eClw3fRznS8TdtBH1KZxy84WRjTHz5Z2Ud+/ewfn46/apU3Ps2DHz1KtXr6CRubk5habYXJXJwWbmmsc7IrzpnMaLXWO58sVglDm8fWf/nzYd56E+kjq2CJuOtylGNYQvofKFH28qtmpIoYKkLmI8KBVVn8IpN18Y2VjIfNmT8uPHDzj/7t27zjmpUwOYp27evAkf0MxpzhbQV2VysAXmi4ExWinUeLFrLD5fKGUOY99xbDpY2hQyNpXdpuNtilEN4UuofFH0eLOqhhSqT+oixoPSf89an8IpN18UKxvzzhczKYcPH4aHnz59UsmHjpcvXypUfIWmpqurS68lmAK43HyjxJli+6pwB5s911mXGd50EfmigtdYfL7MEMocxr7z7582HeehCh5bVpsO1RSlGsKXMPlCjZf6wT5VN4Xqk7qIvYNS2etTOKXnCyMb884XMynwzmJkZAR2e19fH5ygfyaSOjXwcgMDA3AJRBt8zDH735li+6pwB5s911mXGd50cfkSuMbi80VDKXMi7Dtx5LTpFKIaUtnHS9WtcHLWJ47S80Wlyca888VMytzcHDwV6AMx2/Lz58/2j1RCKNbBxoyoQJg1ljdfSqGyNp2KUHp9qpAvJYLf3bQfgWuslvnitemIg8rgrU8r6fB8GR4ePnPmjHu0vQhcY7XMFy/ioKoOHZ4vgqF98kWoDpIvgqau+bKwsDBFgP+7VUHz/Pnzo0ePwqflL1++FKv5cKh7vgQWJ/C0aJrdfgvIlS+pLolisV9ufn5++f/p6elZsmSJeeh8PbGatLh0KvmGaHd39/j4+PXr179//27/GjICvv91z5dAB0qeGvIF1AR2o8rkyhf8XeOmQr3c5cuXly1b5h6tNtRYmgdsRfvGqDx7Q6X1v+75EkieGvIFbBvi8wW7JHidiuPL4P0R2NCBX86c7M0X3IImXOxCWTw03vbxML018Y7lxIkT0BnTfqPRMAXBzSqiA5QNBAYI4bJq1Sp4Ob2snb1BmUfC+29Ter5g9Yk+7i2aQhW2HSjeCmjsGlKVV77OeAuIZ9l0I7+HpSzi82UKuSQupOlU9lu+DMYf4TV04JczjeN88bagn9I9CRG7DBEWD6Z9PExvTbxjcf4nXFh2piC4WaoD1Lc537x5Mzo62t/fDy+nb8yx9wZjHgnvv025+eJVnyi6aApV2C6OtwIa+zSq8t7OeAuIZ9m0P5Tbw1IW8fmi2Pd4WKdiOyYYfwRl6FD0yzn5wrSgkp6EiF30mV6LB9O+M0wHuyZ4LHy+2M0yHZghbCDA5OQkrGnz0Kxd3jxiw/ffptx88apPmKIpVGHqg4+zqu3TqMp7O6N8BcSLx86XnB6WsigyX3idiu2YYPwRlKFDoZczOPnCtKCSntiNUGIXlZzptXgw7TvDVHRN8Fj4fLGbZTrAQOULbx4J779NufniVZ/wRXMq7Hzw8VbAOY3C2xnlKyBePHa+2CdHeFjKosh8CdepzND+CMbQgadE4+QL04JCPWFuXBwiLB5M+07jiq4JHouTLyMjI3a+2M0yHWCYJPKFN4+E99+m3HxRPvUJXzSnwnZwUBVwTmPAnVG+AuLFY+eL9z5DZh9VhFz5st9ySWTSqTD+CMbQYb+cjZMvTAsK9YTPlyGfxYNp32mcqQkey86dO0+dOmUebt26lcoXpgMMVL4w5pFM/bcpPV8MgWYiKl+YCtinBZLJw6IC8oXZRxUhV77YLgkYarhORbH+CK+hQ/nUFRr8812qBYV6wucLZfGg2ncaZxQzeCxjY2MbN26E90fwED5Rw0tT+aLoDlA2EEXni6LNI5n6b1NuvlDqE6poClXYFIepgH2aoitPdQYXEM9yar4odh9VgVz54rgkwnUqivVHeA0dCr2caQrnC9WCQj3h8+UvwuJBtY+HSdUEjwWWGrw6tAlnHjhwwFaW4GapDlC/xVBsvjDmkfD+25SbLzOE+oQqmkIVtotDVcA5jao81RlcQDzLIfnC7KMqkCtfMHE6Fa8/wmvoyETOFsykUhaPwPbDawL/jsEL2eJYnsAOBEKZR8L7byg3XzSU+iSiaBEVcKA6UyzefVQuBedLOIH+iBLB/54IgVQhXzqEiu+j0vIl0B9RIp1g8WgSki8to+L7qLR8EdoYyRdBI/kiFI/ki6DJlS+BfoqfP38+efIEznz8+PH8/Lz7dHYmJyfv3LnjHo0lcBRCOC3Ll9u3b3eg/7QuLC4unj9/3pmyDPkS4qeAIFizZs26det27Nixfv361atX54+GYn/ymvVbUkIqLcuXX79+nT59WiKmmjx48GBqasqZsgz5ksqzZ8+WLl06Pj6ufxe4sLAwMTEBR8z3muKQfKk4LcsX4Pfv3/D28x+hYkBi3Lt3z52tTPliazKw5EIl924MDAz8cY1Sg4OD5otejNiCEWrofKHMLJTKhHrKyRdKEUJ5QJghdCytzBehXmTIF7MzvZILfTN7o9Fwrrpx4wYc//btm0qSghJbUF+IVMlVlJmFUZlQT9n5wihCLhAeEGYIHYvki0ARky9eycX09DQchPdI9kGViA7gOHwwU8nm9IotFC3UUMlVlJmFUpkwT5lR8IoQG9sDwgyhY5F8EShi8sUruZhJbh7Hd6zev38fjn/48EElm9MrtuAZIswsjMqEecqMgleEUB6QuCG0N5IvAkVMviif5AKOdHV1nT179s+L/vdTG/gQoe/mYG7cYhgizCyMyoR5yoyCV4RQHpC4IbQ3ki8CRWS+GGzJxd69e+FjiHF2qeSdzoYNG/bs2aMfxm3OoQTz0JhZGJUJ85QZBaMIYTwgcUNobyRfBIqYfKEkF7Ozs729vfB5QRvSYZcODw/DETiuW2A2JyXUUMlVlJmFUpkwT9kpSSlCGA8IM4SORfJFoIjJF0pyAbx//3779u2wG1esWAF/btu2zf6lL7M5+d8fUWYWRmVCPWXnC6MIoTwgzBA6FskXgSJDvjgwkouvX7/CU4V/z5Iys1AqE/4pA6UIye8B6RAkXwSK+HwRBI3ki0Ah+SLkRfJFoJB8EfIi+SJQSL4IeZF8ESgkX4S8XLx40V1AgpDgz5crV65UyhssVBZYJ9euXXMXkCAk+PMF1s3Vq1cbjcYlQaCBFQLrBFaLu4AEIcGfL4IgCPmRfBEEoVlIvgiC0CwkXwRBaBaSL4IgNIv/APHHk8QkcyYmAAAAAElFTkSuQmCC;" parent="1" vertex="1">
          <mxGeometry x="693" y="5935" width="774.01" height="1050" as="geometry" />
        </mxCell>
        <mxCell id="D4GbOzt9CynH11Gv_l5v-138" value="&lt;h3&gt;&lt;font style=&quot;font-size: 24px;&quot;&gt;Temperature manager database&lt;/font&gt;&lt;/h3&gt;" style="text;html=1;align=center;verticalAlign=middle;resizable=0;points=[];autosize=1;strokeColor=none;fillColor=none;" parent="1" vertex="1">
          <mxGeometry x="870" y="5865" width="380" height="70" as="geometry" />
        </mxCell>
        <mxCell id="D4GbOzt9CynH11Gv_l5v-139" value="&lt;h3&gt;&lt;font style=&quot;font-size: 24px;&quot;&gt;Temperature monitor database&lt;/font&gt;&lt;/h3&gt;" style="text;html=1;align=center;verticalAlign=middle;resizable=0;points=[];autosize=1;strokeColor=none;fillColor=none;" parent="1" vertex="1">
          <mxGeometry x="2033.65" y="6085" width="370" height="70" as="geometry" />
        </mxCell>
        <mxCell id="bjP5NrTEx-Xp9txkyA7c-16" style="edgeStyle=orthogonalEdgeStyle;rounded=0;orthogonalLoop=1;jettySize=auto;html=1;exitX=0.25;exitY=1;exitDx=0;exitDy=0;exitPerimeter=0;entryX=0.211;entryY=0.029;entryDx=0;entryDy=0;entryPerimeter=0;" parent="1" source="D4GbOzt9CynH11Gv_l5v-39" target="D4GbOzt9CynH11Gv_l5v-37" edge="1">
          <mxGeometry relative="1" as="geometry" />
        </mxCell>
        <mxCell id="bjP5NrTEx-Xp9txkyA7c-17" style="edgeStyle=orthogonalEdgeStyle;rounded=0;orthogonalLoop=1;jettySize=auto;html=1;exitX=0.5;exitY=0;exitDx=0;exitDy=0;exitPerimeter=0;entryX=0.54;entryY=0.987;entryDx=0;entryDy=0;entryPerimeter=0;" parent="1" source="D4GbOzt9CynH11Gv_l5v-37" target="D4GbOzt9CynH11Gv_l5v-39" edge="1">
          <mxGeometry relative="1" as="geometry" />
        </mxCell>
        <mxCell id="bjP5NrTEx-Xp9txkyA7c-24" style="edgeStyle=orthogonalEdgeStyle;rounded=0;orthogonalLoop=1;jettySize=auto;html=1;exitX=1;exitY=0.5;exitDx=0;exitDy=0;exitPerimeter=0;entryX=0;entryY=0.25;entryDx=0;entryDy=0;entryPerimeter=0;" parent="1" source="cI-tB0PRecpQT2LH2l9G-58" target="cI-tB0PRecpQT2LH2l9G-61" edge="1">
          <mxGeometry relative="1" as="geometry" />
        </mxCell>
        <mxCell id="bjP5NrTEx-Xp9txkyA7c-25" value="Передать конфигурации пользователя" style="edgeLabel;html=1;align=center;verticalAlign=middle;resizable=0;points=[];" parent="bjP5NrTEx-Xp9txkyA7c-24" vertex="1" connectable="0">
          <mxGeometry x="0.2" y="-4" relative="1" as="geometry">
            <mxPoint x="-1" as="offset" />
          </mxGeometry>
        </mxCell>
        <mxCell id="bjP5NrTEx-Xp9txkyA7c-26" style="edgeStyle=orthogonalEdgeStyle;rounded=0;orthogonalLoop=1;jettySize=auto;html=1;exitX=1;exitY=0.5;exitDx=0;exitDy=0;exitPerimeter=0;entryX=0;entryY=0.25;entryDx=0;entryDy=0;entryPerimeter=0;" parent="1" source="D4GbOzt9CynH11Gv_l5v-38" target="D4GbOzt9CynH11Gv_l5v-40" edge="1">
          <mxGeometry relative="1" as="geometry">
            <mxPoint x="1360" y="5099" as="targetPoint" />
          </mxGeometry>
        </mxCell>
        <mxCell id="bjP5NrTEx-Xp9txkyA7c-27" value="Передать конфигурации пользователя" style="edgeLabel;html=1;align=center;verticalAlign=middle;resizable=0;points=[];" parent="bjP5NrTEx-Xp9txkyA7c-26" vertex="1" connectable="0">
          <mxGeometry x="-0.0167" y="3" relative="1" as="geometry">
            <mxPoint x="-1" as="offset" />
          </mxGeometry>
        </mxCell>
        <mxCell id="bjP5NrTEx-Xp9txkyA7c-29" value="Сохраняет данные приборов" style="edgeLabel;html=1;align=center;verticalAlign=middle;resizable=0;points=[];" parent="1" vertex="1" connectable="0">
          <mxGeometry x="2300" y="4870" as="geometry" />
        </mxCell>
        <mxCell id="bjP5NrTEx-Xp9txkyA7c-30" value="Передает данные приборов" style="edgeLabel;html=1;align=center;verticalAlign=middle;resizable=0;points=[];" parent="1" vertex="1" connectable="0">
          <mxGeometry x="2470" y="4869.999999999999" as="geometry" />
        </mxCell>
        <mxCell id="bjP5NrTEx-Xp9txkyA7c-31" style="edgeStyle=orthogonalEdgeStyle;rounded=0;orthogonalLoop=1;jettySize=auto;html=1;exitX=0.75;exitY=1;exitDx=0;exitDy=0;exitPerimeter=0;entryX=0;entryY=0.5;entryDx=0;entryDy=0;entryPerimeter=0;" parent="1" source="D4GbOzt9CynH11Gv_l5v-73" target="D4GbOzt9CynH11Gv_l5v-64" edge="1">
          <mxGeometry relative="1" as="geometry" />
        </mxCell>
        <mxCell id="bjP5NrTEx-Xp9txkyA7c-32" value="Передает данные приборов" style="edgeLabel;html=1;align=center;verticalAlign=middle;resizable=0;points=[];" parent="bjP5NrTEx-Xp9txkyA7c-31" vertex="1" connectable="0">
          <mxGeometry x="-0.3639" y="3" relative="1" as="geometry">
            <mxPoint y="-1" as="offset" />
          </mxGeometry>
        </mxCell>
        <object placeholders="1" c4Name="HardwareService" c4Type="Component" c4Technology="Spring Service" c4Description="Сервис общающийся с приборами напрямую" label="&lt;font style=&quot;font-size: 16px&quot;&gt;&lt;b&gt;%c4Name%&lt;/b&gt;&lt;/font&gt;&lt;div&gt;[%c4Type%: %c4Technology%]&lt;/div&gt;&lt;br&gt;&lt;div&gt;&lt;font style=&quot;font-size: 11px&quot;&gt;%c4Description%&lt;/font&gt;&lt;/div&gt;" id="bjP5NrTEx-Xp9txkyA7c-54">
          <mxCell style="rounded=1;whiteSpace=wrap;html=1;labelBackgroundColor=none;fillColor=#63BEF2;fontColor=#ffffff;align=center;arcSize=6;strokeColor=#2086C9;metaEdit=1;resizable=0;points=[[0.25,0,0],[0.5,0,0],[0.75,0,0],[1,0.25,0],[1,0.5,0],[1,0.75,0],[0.75,1,0],[0.5,1,0],[0.25,1,0],[0,0.75,0],[0,0.5,0],[0,0.25,0]];" parent="1" vertex="1">
            <mxGeometry x="1510" y="4740" width="240" height="120" as="geometry" />
          </mxCell>
        </object>
        <mxCell id="bjP5NrTEx-Xp9txkyA7c-55" style="edgeStyle=orthogonalEdgeStyle;rounded=0;orthogonalLoop=1;jettySize=auto;html=1;exitX=0.5;exitY=1;exitDx=0;exitDy=0;exitPerimeter=0;entryX=0.5;entryY=0;entryDx=0;entryDy=0;entryPerimeter=0;" parent="1" source="D4GbOzt9CynH11Gv_l5v-40" target="bjP5NrTEx-Xp9txkyA7c-54" edge="1">
          <mxGeometry relative="1" as="geometry" />
        </mxCell>
        <mxCell id="bjP5NrTEx-Xp9txkyA7c-60" value="Передать hardware конфиги" style="edgeLabel;html=1;align=center;verticalAlign=middle;resizable=0;points=[];" parent="bjP5NrTEx-Xp9txkyA7c-55" vertex="1" connectable="0">
          <mxGeometry x="-0.1708" y="-2" relative="1" as="geometry">
            <mxPoint as="offset" />
          </mxGeometry>
        </mxCell>
        <mxCell id="bjP5NrTEx-Xp9txkyA7c-56" style="edgeStyle=orthogonalEdgeStyle;rounded=0;orthogonalLoop=1;jettySize=auto;html=1;exitX=1;exitY=0.5;exitDx=0;exitDy=0;exitPerimeter=0;entryX=0.284;entryY=0.985;entryDx=0;entryDy=0;entryPerimeter=0;" parent="1" source="bjP5NrTEx-Xp9txkyA7c-54" target="D4GbOzt9CynH11Gv_l5v-73" edge="1">
          <mxGeometry relative="1" as="geometry" />
        </mxCell>
        <mxCell id="bjP5NrTEx-Xp9txkyA7c-57" value="&lt;span style=&quot;color: rgba(0, 0, 0, 0); font-family: monospace; font-size: 0px; text-align: start; background-color: rgb(251, 251, 251);&quot;&gt;%3CmxGraphModel%3E%3Croot%3E%3CmxCell%20id%3D%220%22%2F%3E%3CmxCell%20id%3D%221%22%20parent%3D%220%22%2F%3E%3CmxCell%20id%3D%222%22%20value%3D%22%D0%9F%D0%B5%D1%80%D0%B5%D0%B4%D0%B0%D0%B5%D1%82%20%D0%B4%D0%B0%D0%BD%D0%BD%D1%8B%D0%B5%20%D0%BF%D1%80%D0%B8%D0%B1%D0%BE%D1%80%D0%BE%D0%B2%22%20style%3D%22edgeLabel%3Bhtml%3D1%3Balign%3Dcenter%3BverticalAlign%3Dmiddle%3Bresizable%3D0%3Bpoints%3D%5B%5D%3B%22%20vertex%3D%221%22%20connectable%3D%220%22%20parent%3D%221%22%3E%3CmxGeometry%20x%3D%222083%22%20y%3D%224726.75%22%20as%3D%22geometry%22%2F%3E%3C%2FmxCell%3E%3C%2Froot%3E%3C%2FmxGraphModel%3E&lt;/span&gt;" style="edgeLabel;html=1;align=center;verticalAlign=middle;resizable=0;points=[];" parent="bjP5NrTEx-Xp9txkyA7c-56" vertex="1" connectable="0">
          <mxGeometry x="0.2016" y="-1" relative="1" as="geometry">
            <mxPoint as="offset" />
          </mxGeometry>
        </mxCell>
        <mxCell id="bjP5NrTEx-Xp9txkyA7c-58" value="&lt;span style=&quot;color: rgba(0, 0, 0, 0); font-family: monospace; font-size: 0px; text-align: start; background-color: rgb(251, 251, 251);&quot;&gt;%3CmxGraphModel%3E%3Croot%3E%3CmxCell%20id%3D%220%22%2F%3E%3CmxCell%20id%3D%221%22%20parent%3D%220%22%2F%3E%3CmxCell%20id%3D%222%22%20value%3D%22%D0%9F%D0%B5%D1%80%D0%B5%D0%B4%D0%B0%D0%B5%D1%82%20%D0%B4%D0%B0%D0%BD%D0%BD%D1%8B%D0%B5%20%D0%BF%D1%80%D0%B8%D0%B1%D0%BE%D1%80%D0%BE%D0%B2%22%20style%3D%22edgeLabel%3Bhtml%3D1%3Balign%3Dcenter%3BverticalAlign%3Dmiddle%3Bresizable%3D0%3Bpoints%3D%5B%5D%3B%22%20vertex%3D%221%22%20connectable%3D%220%22%20parent%3D%221%22%3E%3CmxGeometry%20x%3D%222083%22%20y%3D%224726.75%22%20as%3D%22geometry%22%2F%3E%3C%2FmxCell%3E%3C%2Froot%3E%3C%2FmxGraphModel%3E&lt;/span&gt;" style="edgeLabel;html=1;align=center;verticalAlign=middle;resizable=0;points=[];" parent="bjP5NrTEx-Xp9txkyA7c-56" vertex="1" connectable="0">
          <mxGeometry x="0.379" y="-1" relative="1" as="geometry">
            <mxPoint as="offset" />
          </mxGeometry>
        </mxCell>
        <mxCell id="bjP5NrTEx-Xp9txkyA7c-59" value="Передает данные приборов" style="edgeLabel;html=1;align=center;verticalAlign=middle;resizable=0;points=[];" parent="bjP5NrTEx-Xp9txkyA7c-56" vertex="1" connectable="0">
          <mxGeometry x="0.4067" y="-3" relative="1" as="geometry">
            <mxPoint as="offset" />
          </mxGeometry>
        </mxCell>
        <mxCell id="qUykR4TP9_ygBwoQ1Z9V-1" value="" style="shape=image;verticalLabelPosition=bottom;labelBackgroundColor=default;verticalAlign=top;aspect=fixed;imageAspect=0;image=data:image/png,iVBORw0KGgoAAAANSUhEUgAAANcAAAClCAIAAABA9f8oAAAAKnRFWHRjb3B5bGVmdABHZW5lcmF0ZWQgYnkgaHR0cHM6Ly9wbGFudHVtbC5jb212zsofAAABImlUWHRwbGFudHVtbAABAAAAeJxdTttqAkEMfZ+vCD4pZaW1UmQRkda24AXF26vEnbgMnc1INrNFSv+9I1QKfQnJueWMa0XRWHlDrE4v0NqSp4pULi3AGvR2wZcBuHM2B8cKw+FqNholJMvSkBCqwy9FJUmCLDWuoH9gEUXSmy1VZxLUKJTDyQfUxLl6yTkcQ/CEfNUKoZI9oOZg02a+zZjYXpualUfW3WIODUntAsNDt3ff63cHR1J8bO/4g8MnQxGqs/ME6irqmPb7ag51iFIQWFeruGPUZO6YKTYI68hXXQ7LM/F0MrsB8MqNk8BVKm6m+8Wf4KmfPTuFDUmqAfuFmdAJo9fkKIJ1XOaw275lAzNHLiOWKZvYvISUK5fEbcwPC6l/Cm8SSj8AABhgSURBVHhe7Z2Ld01H38cTJKm7uEZaJF3apSXSSOKSiBNBLyjRokSUiqJV5dFKsMqjbzVIXYLl7U1dHqq5SELw1tJQjZKSSl+lqLtGmz6K2H/B+36fMzUms/dM9jk5JzvZmc/Kytp7Lr+Z2ft75nLOb8/2+T+Fwmp8+ACFotZRKlRYj1KhwnqUChXWo1SosB6lQoX1GKuwsrIyIyMjPT39Q4XCXYqLi3lhCTBW4UcffVReXq4pFDVg9+7d2dnZvLaMMFYhhMybVChcZ8WKFby2jFAqVHgRDKq8toxQKlR4Eduq8P79+/sO7nvjH2/GxMc+1eupoKAg/I+Jj5n1jzf3/M9exPIZFNZhTxXmF+b3j+sfFRM9PW3mmpz1XxzennemEP9xjBCE94vrn1u4m8+msAi7qfDevXtvzX+rd2TvJf/9PpQn+kMs0rwx702k500oah1bqRCSShybOOTFoV+WZOuVx/0hDVKOGjtaCdFybKXCt9+ZC2Hl/rRHrznDP6REevSdvCFF7WIfFR44cKB3ZPjOE1V6QR8BNAHSI9e+A/t4cwyVlZVHBfzyyy98aoYVK1Z88sknfKhCh01UiDXvQEecfi7Iq+8BbBrkinXESlbNFRUVzR7g7++P7PT0jTfe4FMzjBgx4vXXX+dDvcD06dPff/99PrT+YBMVFhUV9R3Yj5Mgq0J9FPsXHdsXFnijRuB6BQQE8KECak2Fzz33nPzzUMexiQoXpC14PW2mXl4mVYi88xfM540aIVJhTk4OpBAWFpaYmFhcXEwCORUapgFLliz54osv1qxZEx0dPWDAgOzsbHTMGM0jIyPj4+P3798vt7B27drOnTt37979JScXL16Ewc2bN8Ngv379Jk+enJubO2PGDGoEbNiw4b333mNDrMUmKoxPiF+TvV4vL5MqRF5HgoM3aoShCjdt2tS8eXOMiYWFhQsXLmzatOmJEye0qioUpQEOhyM4ODgpKSkrK2v27NlNmjSBdKZMmYLTlJQUjPtXr16VWMD09JlnnoE6/+Xk999/JwZR+rZt2yDB8+fPN27c+MiRI6S4O3fudOjQYd26deS0LmATFfYK6/XFkX/p5UVVyKJPhrw9w3ryRo3Qq/Du3bvt27fPyMigIZMmTRo7dqzGqFCSRnOqEN0eOUYvCAHFxsaS03v37gUGBm7ZskVugRuRYbBHjx7sTHf48OGvvvoqOd6+fTvUDLHSWMuxiQq7dOmSc7pALy9egE70yZAXFnijRuhVWFJSApvTpk1D/5SWlpaampqQkNCz5380TVUoSaM5RcNqqG/fvvPmzaOnSJaeni63oFchOlF6CvLy8tCnEuVhlJ86dSobazk2UWFY7zB5X6iPYv+QF70pb9QIvQox0sH+3LlzlzFgrqYxKpSk0ZyiYWXXv39/SI2e9urV64MPPpBb0KuQNag5u9iQkBCMwmfOnPH19f3uu+/YWMuxiQoThgyp4bxw8JDBvFEj9Cq8ceNGo0aNduzYwQYSqAolaTSdaAxVKLeAgmbOnElP9SoEmFBiWYPwiIgILspybKLCRYsWzV48Ry8vkyqctWj2wkUPb7wEvQrBhAkT0NPQ1capU6f27t2rVV2diNJoOtEYqlCTWpg1axaWw5cvX/7jjz/Q7Rmq8Nq1a6g51jRYIHNRlmMTFRYVFcUOitXLi6qQg0s2IC6mJt8XVlRUJCcnY22LlQSmX/ifmZmpVVWhKI1mWoUSCxhnkQsKQ9NKS0sNVQjGjRvXsmVL2OEjrMYmKkQHgNn6f33yoRsqXPbxB4MTBkt+OzEJ5v7oqM6dOydxjzCTRk5NLMTFxU2fPp0PrQPYRIXg66+/juobZcabhv3beSI7MjoKeXlz9uLs2bPr169HP1pWVsbH1QHso0KQlpb24kujXPKpGTFmJHLxhmxH7969u3fvvmnTJj6ibmArFWKQmjhx4uiXR+8qydVrjvv7siQHkkV6N4Y2hWexlQo1pxDRt0X3jc7YvFqvPPq38vOPkAYplQTrAnZTIQHzvMGDBw9yDFqwNPXTgs07j2ZBeTu/y/ok//N3l6bGOQYh1vZzwXqEPVWoOVfNRUVFixYtGjZsWHh4eFBQEP7jGCEIr/mKWOFBbKtCRT1CqVBhPUqFCutRKlRYT01VuHXr1g8Vihqwbdu2mqqQV7VC4TpKhQrrUSpUWI9SocJ6lAoV1mOlCiXbuKxdu3bjxo18qA6JhZpz9uxZshnN8ePHb968yUX9+OOPbEhpaWlxcbH6YdA9rFThyy+//NZbxvtljR8/nj4/K0FigcW9bVySkpKaNGnStm3bli1b+vj4xMfHX7p0iUYNHDiQpsRF9PPz+/jjj2mIwiWsVKEEkyo0iXvbuLBSO3nyZFBQUGJioj5q6dKlAQEBO3fuJKcKN7BShcuXL6fevxjLcNqnT58BAwZgkGVVePXq1YMHD969e/dhzgewFshuL+vXr+/bt29sbCwN12/j8jB/VW7fvs0ecB3e22+/3alTJ3JMo+bNm9esWbM9e/bQZJwRhRm8pcLc//026uPZrT5MxH8c89FO2EfUMGK2aNECisnJycENxv2mKvzss88wIF67du1hzgewFhwOx6OPPoox+quvvvrnP//ZqFGjwsJCzWgblyomnOAzAD3l5+fjAL3mgQMHNJ0Kk5OTH3/8cXKMqJiYmNdee61169aHDh2iacCUKVMOHz5M0rBbIikkeEWFkF23Ncn7z534486/8R/HhkKkGrpz506bNm1Wr15Nwm/dutWqVSuqwhMnTixcuPDPP/+kGSmcCqE2uj4YMmQIjZKPyCj9lVdeQXYIfcyYMUOHDiXPSkJGYWFh6IYhSgy7mCPSJ1QQ5evri88GFF/FlnMzT4zdWVlZBQUFOICyuQQKPV5RIfq/wrPf01McI4SJ/xuqobKyMtxRdtWZkJBgZl7IqZCVWkpKyosvvkiO5SpELMT3119/wcKECRPo0A+p+fv7BwcHd+3aFfOEVatWsVHh4eEY+hGl384VHxvkwkwRfSGEmJ2dzSVQcHhFha0/TPz9zr/pKY4RwsT/DdXQ8ePHocLz58/TKAjIDRWyj4IjHLHkWK5C5EKfh/XvrFmzIiIiyDZtmm5EZiFR6LOjo6O7devGCXH79u0QH8ZlzCUwJVXjcrV4RYWu9oW4nRjg8vLyaBQWEx5UIbeNi5709PSQkJALFy4sW7YMRZNvZKpVoeasOYSIvPQjtGHDBuiytLQUEwzMI3/66acqORVGeEWFrs4LQWJiYmRkJPlyGGMf1hZUhVhkQGG43zQjxaQKuW1caBqWrVu3kl1TP/30U7LgMKNCzSnEqKio0NBQiFhz7pjz66+/4mDBggVXrlxhcylEeEWFmutr5IsXL2JY9PPzwzIFemJHZPNrZJEKuW1caBo5JlUIysvLWSEqXMVbKnQD9FJYoPz88898hMLu1CEVKhosSoUK61EqVFiPUqHCepQKFdajVKiwnpqqMEihqDE1VSGvaoXCdZQKFdajVKiwHqVChfUoFSqsx54qFD2nXBcec1bosacKRc8pm3zAVJSdw73HnBV67KlCESZVaBL5gwQK83hehUuWLNm8efOaNWv69es3efJkErhp06aBAwf26tVrwoQJrBO8KJw8XAwj0dHRAwYMyM7Ovn//PgbKyMjI+Ph44hQtgT6nXPuPOefk5ECdYWFhiYmJ9ImTyspK9JoRERGkGqtXr4ZBEiXKogmupC3xvAodDkdwcPCIESO2bduWm5urOT34mzZtCg3l5eUNHz68Xbt2N27ckIRTI0lJSVlZWbNnz27SpAluw5QpU3CakpLSrFkz+oySIdQHu5Yfc4ZGmzdvjkKRZuHChWgdeZEsjlu3bg3l7d69e+jQoWw1RFlI0dyVtCteUWGPHj3o4x3obNq0aUPerUpOu3TpkpqaKgqnRtDtkWOYws1AP0RO7927FxgYuGXLFnJqCJFRLT/mjCa0b98+IyODhkyaNGns2LG3b9/GJ4G+lRgl4vNGqiHKQo65K2ljvKJCdFf0FOMsupySkhIagl7t+eefF4WTY0fVh4sxGrLPlPTs2TM9PZ2e6iEyquXHnNEWFDdt2jSIOy0tDZ8oFIeqlpaWIpx9GeewYcNINURZSDLuStoYr6iQVQx51vjMmTM0ZMaMGXFxcaJwcswZEb24WgSRUS0/5nzkyBEUN3fu3GUMmAyg00X42bNnaUpMP0g1RFlIMq5oG+N1FWLC5Ovru2vXLhqCsRUzPFE4OfaICmv5MWdMajFr3LFjBw0hVFRUYF6LuSM5xYziscceI9UQZSEoFXK4r0KAiQ50Qx41//zzz6EM9AGScE1nxD0VarX+mDNW+iEhIXR5cerUqb179+Jg6tSpoaGh33zzDTpm5MLqilZDlEXTFW1jakOFV65cwfoUCsA6kSyK5eGazojbKqzlx5zR7SUnJ6Pnw/oJUsP/zMxMhEOmEydOxFoYIbA2cuTIOXPmECOiLJquaBvjeRWKuHDhAj7x+jWpKNxT1P5jzphsoEXnzp0zfPkyArt167Zu3To2UJ7F9tSeChsyx44d27hxI1bEhw8fHj9+fLt27crLy/lEDZh6rEJMKEcZQXefrjucPHkyISEB878nnnjipZdeUlsocdRjFWIQzzbCe4O7wkvUYxUqbINSocJ6vK5Ck46lIjzucCoxaLKqEgsK9/C6Cmvo0mfS4dQ8EoMmqyqxwKJ8YM1T11VYm3i2qsoH1jyeV6HEsVQTeHRiYcvtO42RcfHixVpVh1Owe/fuF154oWfPnoMGDaK/+hvaFGHhq35E9XTDB9ZmDrCeV6HEsVTk0Xn69GkfHx/6WyruSnBwMPlBj/0xbcOGDX5+fu+8887evXtx78mvWyKbIliDkqqa/33PpA+spJ5u+MA67OUA62EVShxL5R6d6EvoZKugoABqI97U9JbDcmBgIOkgKXKbhrAGRVXVPO0DK6mnez6wDns5wHpYhRLHUrlHZ2ZmZseOHckIOG7cONZ7itxX4qXH9XNym4ZQg5KqyuFUaMYHVlJP93xgHfZygPWwCiWOpXKPzvLy8kceeQQjI/okjDtffvklCae3/Ntvv0V27rcvuU1DqEFJVeWY9LhhVSipp3s+sDZzt/GwCiWOpXKPTs35Dcjo0aMxNmEYwnBJAuktv3nzJrJjGsRmqdamHmpQUlU5JlU4gvGBldTTPR9YpcKH6FWoSR1LJR6dAIIICAjAYpAd49hbjpE6NDT0hx9+0JxzJqxhteps6mENSqrqcR9YST3d8IFVKnyIoQoljqUSj07N2Q107twZY9D33z98exl7y7HSHDNmDDowzN/9/f3Jo1Jym3pYg5Kqml8ji1TI+cBK6umGD6xS4UMMVahV51haQ4/O69evIzvnvuW2TXlVPU619WyYPrBeUaHCJZQPrD1VWI8cYDXlA2tXFSoH2PqFPVWoqF80CBVWVlYeFcC95l3Bsm/fvpkzZ2KqitWbV70q7axC6uFXUVHR7AH+/v4+Pj70tL44X9W+t+Lx48f9/PxSU1OxYL969Sr7/ZQbyOtvZxUaevihwQEBAVxg3cewLV4lIyOD/UW+hiqU198rKjT0Apw3bx7WBzTNqlWrqBcd5y1n6Dxn6GZH8pr38NPEKjS0b34zT1LnlStXRkVFodqsT6QmNs418+DBg0lJSTCOkDlz5vz2228kpb4t5i8mCTSsgMSHEm3E7WvTpg2KI+phVSja+9R8/WkWgudVaOgFqOm29UBt6A8VnLccd6qJ3exIXpMefiS9oQpF9klNzGzmiZSdOnUaPXp0Xl4e7OAKQApmjLPNTE9PX758+Z49e3bt2tW/f/+YmBhiQd8W8xdTE1dA8vtQUVERpoMhISEojvzUTlUo2fvUfP0flPM3HlahoRcgQX7hWG857lTiZkcSm/Hwo+hVKLHvML2ZJ1LinmEZRE7nzp375JNPatUZl/gIQhzkpz9yyrXF/MWUVOCE2IcSLFu2DBeWnhIVyvc+ZZHXn8PDKiR+SrSjYpFfONZbjjuVuNmRxGY8/Ch6FUrsc8Ylm3kiJd32DqA/8PX1xQ2WG+d8BNGzzp8/Py4uDgmeeuopWMDchkS5pELzV0+CoQrle5+arz+Hh1Vo6AVI4C7cmDFj2AvH3l3uVOJmp0/M+hMYtlyvQol9zrhk6zCknDVrFo06dOgQbF6/ft28cdCnT59nn322oKAAH+NTp05hWKd+lnIVSi6mpAJylhmpUL73qfn6c3hYhYZegATMZ9999116GhERIbpw3KnEzU7TJWZVOKLqLpcEvQol9l1SIaBRWCu0atVKc8X4pUuXcINPnz5NTsmzOKy3L9sW8xdTUgE5hiqU7H3qUv05PKxCTeAFCLBowioJ3QOmLFjBNG7cWHTh9J2EyM1O0yWWePiRQL0KNbF9l1SIFpGLfv78eVwB+hiNSeMYvtF5EG+aW7duYdzE/aZ3kWuL+YupiSsg8aHUBCrUxHufulR/apbgeRUaegEC1AC1xzIT67VRo0axznzVqlDkZqdPLPHwI4GGKhTZd0mFaE54eDhajb4HgxS9uyaNa8664YphrY1LhGuLxPQucm0xfzE1cQUka2RNrELJ3qfm60+zEDyvQoKhFyA+BKgN+6iHS3jbza4m9um9LysrY6dNFJPGy8vLMfcX9U8srl5MkxUwiWjvU/P1Z/GWChsa+h5IYR6lQs+QmJi4ZMkSPlRhDqVChfUoFSqsx/MqNOmIholtQUEBUubn52MRx0e7DtZ0W7du5UPdxWQrFB7B8yo0s70f5NK2bdugoKCYmJjOnTsHBgbWXECeXR/QLyYUtYDnVVgthYWFvr6+qamp5CuDysrKxYsXI0T+NHu1KBXWXzyvQnZ7v5KSknHjxvXu3Ts6Ojo5OZl8fdinT5/w8PAqeTQtKiqKfkcqchnUpC5xRIUiDz+RS5woilOhoX+eJvaokzRBocfzKqT37/bt2x06dEhJSdm/f39ubi46v7KyMuLws2rVKi5XZmYmwq9cuaI59WToMqhJv+53iD38JC5xoihWhSL/PE3sUSdpgkKPF1VIvIAuXLjAxh47dgyBWVlZbKDmdIVC+NGjRzXnLRS5DEpc4hxiDz+RS5wkirZC4p/HwXrUSZqg0ONFFeL+Pf300127doUgMOcj23ARB0S9i0d2drbPgx1qHGKXQQkOgYefxCVOEkVbIffPE3nUudeEBosXVag59wHCUDty5MiWLVuiozpz5gxCGjduvHTp0qqZ/jObxLBFfn/k1hmsg4IEh8DDT+ISJ4mirZD754k86txrQoPFuyqkQHwYH3EvNedepRj46A6FmrPXDA0NHTp0KDl17xY6nNBT6uEncYmTRNFWSPzzJB517jWhweJFFZ47dy4/P59M1HAvoTPyROrJkycx2ccIRZ7Fwr3EwhMhCCcWJLdQ4hLnEHv4iVziJFHsZ0nknyfxqJM0QaHHiyrEbevYsaO/vz9WiwEBARiX6aqiuLg4Ojoa96xFixb4HxkZyX79IbmF8jWyyMNP4hInimJVKPLP05yXz9CjTtIEhR7Pq5CDOKLRb0ZYLl++rPdBrDkiDz+RS5w8iiLyz3PPo07B4nUVKhTVolSosB6lQoX1KBUqrKehqHCtuXcfexZLCq2P1DMVyrfBk+D2W2fdLlEzV2hN7NuGeqZC+UYTEswIwhC3S9TMFVoT+7bBKyo03L9Qv6+eq057htvgiYzcF7/72BDDQg1LlPg4Sgo1b18TN8queF6Fov0LHVX31XPDaU+/DZ7EyPvidx8bYliovkRN+vuNpFDz9iWNsiseVqFk/0IHs6+ee057WtXxS2JE/u7jamEL1Y+YIh9H84VK7EsaZWM8rELiPmj42XUw++q557SnVb1nEiNuvPtYVKhehSLkhZq0L2mUjfGwCiX7F7I/8LvntKdVvWcSI268+1hUqHkVygs1aV/SKBvjYRVK9i9kVeie057mdHUx89JhV999LCmULVGOpFDz9iWNsjEeVqEm3r+Qc3Zyw2lP022DJzKiSd99rEdSqH7jPYmPo6hQl+xLGmVXPK9C0f6FnArdcNrTdNvgSYxI3n1siKhQ/cZ7kjWypFDz9iWNsiueVyHBcP9CPR5x2hMZue/iu49dKlSEpFCX7IsaZUu8pUKFwjwNS4X1673JDYeGpcI/1XuT6yQNS4WKuolSocJ6Vq9ezWvLCGMVQsJY9/EmFQpXyMvLKygo4LVlhLEK79+/DyGuXLlyhULhLsXFxbywBBirUKGoTZQKFdajVKiwHqVChfUoFSqsR6lQYT1KhQrrUSpUWI9SocJ6lAoV1qNUqLAepUKF9fw/owLR3nFcE44AAAAASUVORK5CYII=;" vertex="1" parent="1">
          <mxGeometry x="1909.1" y="6170" width="619.09" height="475.12" as="geometry" />
        </mxCell>
      </root>
    </mxGraphModel>
  </diagram>
  <diagram id="BeJ2n9I-t9SbGGADxh3x" name="Страница — 2">
    <mxGraphModel dx="1674" dy="844" grid="1" gridSize="10" guides="1" tooltips="1" connect="1" arrows="1" fold="1" page="1" pageScale="1" pageWidth="827" pageHeight="1169" math="0" shadow="0">
      <root>
        <mxCell id="0" />
        <mxCell id="1" parent="0" />
      </root>
    </mxGraphModel>
  </diagram>
</mxfile>
